<svg width="18" height="18" viewBox="0 0 18 18" fill="none" xmlns="http://www.w3.org/2000/svg">
<path d="M13.9993 4.83333H14.8327M0.666016 8.16667L1.32435 10.32C1.42857 10.6614 1.63963 10.9603 1.92647 11.1727C2.2133 11.3851 2.56075 11.4999 2.91768 11.5H3.99935M17.3327 8.16667L16.6743 10.32C16.5701 10.6614 16.3591 10.9603 16.0722 11.1727C15.7854 11.3851 15.4379 11.4999 15.081 11.5H13.9993M6.91602 11.0833C6.91602 11.0833 6.91602 16.9167 3.99935 16.9167M11.0827 11.0833C11.0827 11.0833 11.0827 16.9167 13.9993 16.9167M8.99935 11.0833V16.9167M17.3327 2V8.16667H0.666016V2C0.666016 1.86739 0.718694 1.74021 0.812462 1.64645C0.90623 1.55268 1.03341 1.5 1.16602 1.5H16.8327C16.9653 1.5 17.0925 1.55268 17.1862 1.64645C17.28 1.74021 17.3327 1.86739 17.3327 2V2Z" stroke="#0D1B44" stroke-width="1.25" stroke-linecap="round" stroke-linejoin="round"/>
</svg>