<svg width="21" height="20" viewBox="0 0 21 20" fill="none" xmlns="http://www.w3.org/2000/svg">
<path d="M16.1582 1.66681H4.49154C4.0313 1.66681 3.6582 2.03991 3.6582 2.50014V17.5001C3.6582 17.9604 4.0313 18.3335 4.49154 18.3335H16.1582C16.6184 18.3335 16.9915 17.9604 16.9915 17.5001V2.50014C16.9915 2.03991 16.6184 1.66681 16.1582 1.66681Z" stroke="#0D1B44" stroke-width="1.66667"/>
<path d="M3.6582 6.45847H16.9915" stroke="#0D1B44" stroke-width="1.66667" stroke-linecap="round" stroke-linejoin="round"/>
<path d="M11.9915 5.0001C12.4518 5.0001 12.8249 4.62701 12.8249 4.16677C12.8249 3.70653 12.4518 3.33344 11.9915 3.33344C11.5313 3.33344 11.1582 3.70653 11.1582 4.16677C11.1582 4.62701 11.5313 5.0001 11.9915 5.0001Z" fill="#0D1B44"/>
<path d="M14.4935 5.0001C14.9537 5.0001 15.3268 4.62701 15.3268 4.16677C15.3268 3.70653 14.9537 3.33344 14.4935 3.33344C14.0333 3.33344 13.6602 3.70653 13.6602 4.16677C13.6602 4.62701 14.0333 5.0001 14.4935 5.0001Z" fill="#0D1B44"/>
<path d="M10.3249 15.4168C11.9357 15.4168 13.2415 14.111 13.2415 12.5002C13.2415 10.8893 11.9357 9.5835 10.3249 9.5835C8.71404 9.5835 7.4082 10.8893 7.4082 12.5002C7.4082 14.111 8.71404 15.4168 10.3249 15.4168Z" stroke="#0D1B44" stroke-width="1.66667"/>
</svg>