<svg width="20" height="14" viewBox="0 0 20 14" fill="none" xmlns="http://www.w3.org/2000/svg">
<path d="M9.99956 8.00001C11.6536 8.00001 13.1536 8.67301 14.2406 9.75901L12.8266 11.173C12.1026 10.449 11.1026 10 9.99956 10C8.89656 10 7.89656 10.449 7.17256 11.173L5.75856 9.75901C6.31479 9.20096 6.97579 8.7583 7.70359 8.45643C8.43138 8.15457 9.21165 7.99946 9.99956 8.00001ZM2.92856 6.92901C4.81756 5.04001 7.32856 4.00001 9.99956 4.00001C12.6706 4.00001 15.1816 5.04001 17.0706 6.92901L15.6566 8.34301C14.1456 6.83201 12.1366 6.00001 9.99956 6.00001C7.86256 6.00001 5.85356 6.83201 4.34256 8.34301L2.92856 6.92901ZM15.4496 1.10101C17.1129 1.80392 18.6241 2.82273 19.8996 4.10101L18.4856 5.51501C16.2186 3.24901 13.2056 2.00001 10.0006 2.00001C6.79556 2.00001 3.78156 3.24801 1.51556 5.51501L0.101562 4.10101C1.40012 2.79885 2.94325 1.76619 4.64224 1.06239C6.34123 0.358599 8.16257 -0.00244605 10.0016 1.24718e-05C11.8916 1.24718e-05 13.7246 0.370013 15.4516 1.10101H15.4496ZM8.99956 13C8.99956 12.7348 9.10492 12.4804 9.29246 12.2929C9.47999 12.1054 9.73435 12 9.99956 12C10.2648 12 10.5191 12.1054 10.7067 12.2929C10.8942 12.4804 10.9996 12.7348 10.9996 13C10.9996 13.2652 10.8942 13.5196 10.7067 13.7071C10.5191 13.8947 10.2648 14 9.99956 14C9.73435 14 9.47999 13.8947 9.29246 13.7071C9.10492 13.5196 8.99956 13.2652 8.99956 13Z" fill="#0D1B44"/>
</svg>