<svg width="414" height="229" viewBox="0 0 414 229" fill="none" xmlns="http://www.w3.org/2000/svg">
<rect x="0.5" y="0.5" width="413" height="228" fill="white"/>
<path d="M207 78.9999C219.886 78.9999 230.333 68.5532 230.333 55.6666C230.333 42.7799 219.886 32.3333 207 32.3333C194.113 32.3333 183.667 42.7799 183.667 55.6666C183.667 68.5532 194.113 78.9999 207 78.9999Z" stroke="#0D1B44" stroke-width="1.83333" stroke-linecap="round" stroke-linejoin="round"/>
<path d="M194.367 75.2999L190.333 105.667L207 95.6666L223.667 105.667L219.633 75.2666" stroke="#0D1B44" stroke-width="1.83333" stroke-linecap="round" stroke-linejoin="round"/>
<path d="M115.998 144L111.639 132.609H111.568C111.65 133.512 111.691 134.584 111.691 135.826V144H110.312V131.15H112.562L116.631 141.75H116.701L120.806 131.15H123.038V144H121.544V135.721C121.544 134.771 121.585 133.74 121.667 132.627H121.597L117.202 144H115.998ZM127.811 138.349H130.438C131.663 138.349 132.568 138.577 133.154 139.034C133.746 139.485 134.042 140.162 134.042 141.064C134.042 142.031 133.729 142.764 133.102 143.262C132.48 143.754 131.563 144 130.351 144H126.352V134.367H127.811V138.349ZM137.118 144H135.659V134.367H137.118V144ZM127.811 139.605V142.778H130.28C131.827 142.778 132.601 142.236 132.601 141.152C132.601 140.613 132.422 140.221 132.064 139.975C131.707 139.729 131.098 139.605 130.236 139.605H127.811ZM149.379 144.176C148.752 144.176 148.178 144.062 147.656 143.833C147.141 143.599 146.707 143.241 146.355 142.761H146.25C146.32 143.323 146.355 143.856 146.355 144.36V148.324H144.896V134.367H146.083L146.285 135.686H146.355C146.73 135.158 147.167 134.777 147.665 134.543C148.163 134.309 148.734 134.191 149.379 134.191C150.656 134.191 151.641 134.628 152.332 135.501C153.029 136.374 153.378 137.599 153.378 139.175C153.378 140.757 153.023 141.987 152.314 142.866C151.611 143.739 150.633 144.176 149.379 144.176ZM149.168 135.431C148.184 135.431 147.472 135.703 147.032 136.248C146.593 136.793 146.367 137.66 146.355 138.85V139.175C146.355 140.528 146.581 141.498 147.032 142.084C147.483 142.664 148.207 142.954 149.203 142.954C150.035 142.954 150.686 142.617 151.154 141.943C151.629 141.27 151.866 140.341 151.866 139.157C151.866 137.956 151.629 137.036 151.154 136.397C150.686 135.753 150.023 135.431 149.168 135.431ZM161.859 144L161.569 142.629H161.499C161.019 143.232 160.538 143.643 160.058 143.859C159.583 144.07 158.988 144.176 158.273 144.176C157.318 144.176 156.568 143.93 156.023 143.438C155.484 142.945 155.215 142.245 155.215 141.337C155.215 139.392 156.771 138.372 159.882 138.278L161.517 138.226V137.628C161.517 136.872 161.353 136.315 161.024 135.958C160.702 135.595 160.184 135.413 159.469 135.413C158.666 135.413 157.758 135.659 156.744 136.151L156.296 135.035C156.771 134.777 157.289 134.575 157.852 134.429C158.42 134.282 158.988 134.209 159.557 134.209C160.705 134.209 161.555 134.464 162.105 134.974C162.662 135.483 162.94 136.301 162.94 137.426V144H161.859ZM158.563 142.972C159.472 142.972 160.184 142.723 160.699 142.225C161.221 141.727 161.481 141.029 161.481 140.133V139.263L160.022 139.324C158.862 139.365 158.024 139.547 157.509 139.869C156.999 140.186 156.744 140.681 156.744 141.354C156.744 141.882 156.902 142.283 157.219 142.559C157.541 142.834 157.989 142.972 158.563 142.972ZM165.454 138.226C165.454 136.116 165.765 134.473 166.386 133.295C167.007 132.111 167.991 131.373 169.339 131.08C171.015 130.723 172.491 130.433 173.769 130.21L174.041 131.493C172.008 131.833 170.555 132.103 169.682 132.302C168.832 132.495 168.193 132.952 167.766 133.673C167.344 134.394 167.112 135.375 167.071 136.617H167.177C167.54 136.125 168.009 135.738 168.583 135.457C169.157 135.176 169.758 135.035 170.385 135.035C171.568 135.035 172.491 135.419 173.153 136.187C173.815 136.954 174.146 138.018 174.146 139.377C174.146 140.883 173.763 142.061 172.995 142.91C172.228 143.754 171.158 144.176 169.787 144.176C168.434 144.176 167.373 143.657 166.605 142.62C165.838 141.583 165.454 140.118 165.454 138.226ZM169.919 142.954C171.706 142.954 172.6 141.814 172.6 139.535C172.6 137.361 171.788 136.274 170.165 136.274C169.72 136.274 169.289 136.368 168.873 136.556C168.463 136.737 168.085 136.98 167.739 137.285C167.399 137.59 167.136 137.903 166.948 138.226C166.948 139.767 167.191 140.941 167.678 141.75C168.164 142.553 168.911 142.954 169.919 142.954ZM185.01 139.175C185.01 140.745 184.614 141.973 183.823 142.857C183.032 143.736 181.939 144.176 180.545 144.176C179.684 144.176 178.919 143.974 178.251 143.569C177.583 143.165 177.067 142.585 176.704 141.829C176.341 141.073 176.159 140.188 176.159 139.175C176.159 137.604 176.552 136.383 177.337 135.51C178.122 134.631 179.212 134.191 180.606 134.191C181.954 134.191 183.023 134.64 183.814 135.536C184.611 136.433 185.01 137.646 185.01 139.175ZM177.671 139.175C177.671 140.405 177.917 141.343 178.409 141.987C178.901 142.632 179.625 142.954 180.58 142.954C181.535 142.954 182.259 142.635 182.751 141.996C183.249 141.352 183.498 140.411 183.498 139.175C183.498 137.95 183.249 137.021 182.751 136.389C182.259 135.75 181.529 135.431 180.562 135.431C179.607 135.431 178.887 135.744 178.4 136.371C177.914 136.998 177.671 137.933 177.671 139.175ZM194.071 135.615H190.942V144H189.483V135.615H186.39V134.367H194.071V135.615ZM201.902 144L201.612 142.629H201.542C201.062 143.232 200.581 143.643 200.101 143.859C199.626 144.07 199.031 144.176 198.316 144.176C197.361 144.176 196.611 143.93 196.066 143.438C195.527 142.945 195.258 142.245 195.258 141.337C195.258 139.392 196.813 138.372 199.925 138.278L201.56 138.226V137.628C201.56 136.872 201.396 136.315 201.067 135.958C200.745 135.595 200.227 135.413 199.512 135.413C198.709 135.413 197.801 135.659 196.787 136.151L196.339 135.035C196.813 134.777 197.332 134.575 197.895 134.429C198.463 134.282 199.031 134.209 199.6 134.209C200.748 134.209 201.598 134.464 202.148 134.974C202.705 135.483 202.983 136.301 202.983 137.426V144H201.902ZM198.606 142.972C199.515 142.972 200.227 142.723 200.742 142.225C201.264 141.727 201.524 141.029 201.524 140.133V139.263L200.065 139.324C198.905 139.365 198.067 139.547 197.552 139.869C197.042 140.186 196.787 140.681 196.787 141.354C196.787 141.882 196.945 142.283 197.262 142.559C197.584 142.834 198.032 142.972 198.606 142.972ZM210.067 144.176C208.644 144.176 207.519 143.742 206.692 142.875C205.872 142.008 205.462 140.804 205.462 139.263C205.462 137.71 205.843 136.477 206.604 135.562C207.372 134.648 208.4 134.191 209.689 134.191C210.896 134.191 211.852 134.59 212.555 135.387C213.258 136.178 213.609 137.224 213.609 138.524V139.447H206.974C207.003 140.578 207.287 141.437 207.826 142.022C208.371 142.608 209.136 142.901 210.12 142.901C211.157 142.901 212.183 142.685 213.196 142.251V143.552C212.681 143.774 212.191 143.933 211.729 144.026C211.271 144.126 210.718 144.176 210.067 144.176ZM209.672 135.413C208.898 135.413 208.28 135.665 207.817 136.169C207.36 136.673 207.091 137.37 207.009 138.261H212.045C212.045 137.341 211.84 136.638 211.43 136.151C211.02 135.659 210.434 135.413 209.672 135.413ZM221.106 142.594L221.379 141.776L221.757 140.739L224.367 134.385H226.222V144H224.93V136.046L224.754 136.556L224.244 137.9L221.757 144H220.535L218.048 137.883C217.737 137.098 217.523 136.485 217.406 136.046V144H216.105V134.385H217.89L220.412 140.493C220.664 141.138 220.896 141.838 221.106 142.594ZM233.517 138.226C233.517 136.116 233.827 134.473 234.448 133.295C235.069 132.111 236.054 131.373 237.401 131.08C239.077 130.723 240.554 130.433 241.831 130.21L242.104 131.493C240.07 131.833 238.617 132.103 237.744 132.302C236.895 132.495 236.256 132.952 235.828 133.673C235.406 134.394 235.175 135.375 235.134 136.617H235.239C235.603 136.125 236.071 135.738 236.646 135.457C237.22 135.176 237.82 135.035 238.447 135.035C239.631 135.035 240.554 135.419 241.216 136.187C241.878 136.954 242.209 138.018 242.209 139.377C242.209 140.883 241.825 142.061 241.058 142.91C240.29 143.754 239.221 144.176 237.85 144.176C236.496 144.176 235.436 143.657 234.668 142.62C233.9 141.583 233.517 140.118 233.517 138.226ZM237.981 142.954C239.769 142.954 240.662 141.814 240.662 139.535C240.662 137.361 239.851 136.274 238.228 136.274C237.782 136.274 237.352 136.368 236.936 136.556C236.525 136.737 236.147 136.98 235.802 137.285C235.462 137.59 235.198 137.903 235.011 138.226C235.011 139.767 235.254 140.941 235.74 141.75C236.227 142.553 236.974 142.954 237.981 142.954ZM246.217 138.349H248.845C250.069 138.349 250.975 138.577 251.561 139.034C252.152 139.485 252.448 140.162 252.448 141.064C252.448 142.031 252.135 142.764 251.508 143.262C250.887 143.754 249.97 144 248.757 144H244.758V134.367H246.217V138.349ZM255.524 144H254.065V134.367H255.524V144ZM246.217 139.605V142.778H248.687C250.233 142.778 251.007 142.236 251.007 141.152C251.007 140.613 250.828 140.221 250.471 139.975C250.113 139.729 249.504 139.605 248.643 139.605H246.217ZM262.477 144.176C261.082 144.176 260.001 143.748 259.233 142.893C258.472 142.031 258.091 140.815 258.091 139.245C258.091 137.634 258.478 136.389 259.251 135.51C260.03 134.631 261.138 134.191 262.573 134.191C263.036 134.191 263.499 134.241 263.962 134.341C264.425 134.44 264.788 134.558 265.052 134.692L264.604 135.932C264.281 135.803 263.93 135.697 263.549 135.615C263.168 135.527 262.831 135.483 262.538 135.483C260.581 135.483 259.603 136.731 259.603 139.228C259.603 140.411 259.84 141.319 260.314 141.952C260.795 142.585 261.504 142.901 262.441 142.901C263.244 142.901 264.067 142.729 264.911 142.383V143.675C264.267 144.009 263.455 144.176 262.477 144.176ZM273.7 135.615H270.571V144H269.112V135.615H266.019V134.367H273.7V135.615ZM280.09 144.176C279.463 144.176 278.889 144.062 278.367 143.833C277.852 143.599 277.418 143.241 277.066 142.761H276.961C277.031 143.323 277.066 143.856 277.066 144.36V148.324H275.607V134.367H276.794L276.996 135.686H277.066C277.441 135.158 277.878 134.777 278.376 134.543C278.874 134.309 279.445 134.191 280.09 134.191C281.367 134.191 282.352 134.628 283.043 135.501C283.74 136.374 284.089 137.599 284.089 139.175C284.089 140.757 283.734 141.987 283.025 142.866C282.322 143.739 281.344 144.176 280.09 144.176ZM279.879 135.431C278.895 135.431 278.183 135.703 277.743 136.248C277.304 136.793 277.078 137.66 277.066 138.85V139.175C277.066 140.528 277.292 141.498 277.743 142.084C278.194 142.664 278.918 142.954 279.914 142.954C280.746 142.954 281.396 142.617 281.865 141.943C282.34 141.27 282.577 140.341 282.577 139.157C282.577 137.956 282.34 137.036 281.865 136.397C281.396 135.753 280.734 135.431 279.879 135.431ZM294.961 139.175C294.961 140.745 294.565 141.973 293.774 142.857C292.983 143.736 291.891 144.176 290.496 144.176C289.635 144.176 288.87 143.974 288.202 143.569C287.534 143.165 287.019 142.585 286.655 141.829C286.292 141.073 286.11 140.188 286.11 139.175C286.11 137.604 286.503 136.383 287.288 135.51C288.073 134.631 289.163 134.191 290.558 134.191C291.905 134.191 292.975 134.64 293.766 135.536C294.562 136.433 294.961 137.646 294.961 139.175ZM287.622 139.175C287.622 140.405 287.868 141.343 288.36 141.987C288.853 142.632 289.576 142.954 290.531 142.954C291.486 142.954 292.21 142.635 292.702 141.996C293.2 141.352 293.449 140.411 293.449 139.175C293.449 137.95 293.2 137.021 292.702 136.389C292.21 135.75 291.48 135.431 290.514 135.431C289.559 135.431 288.838 135.744 288.352 136.371C287.865 136.998 287.622 137.933 287.622 139.175ZM297.316 143.068C297.316 142.676 297.404 142.38 297.58 142.181C297.762 141.976 298.02 141.873 298.354 141.873C298.693 141.873 298.957 141.976 299.145 142.181C299.338 142.38 299.435 142.676 299.435 143.068C299.435 143.449 299.338 143.742 299.145 143.947C298.951 144.152 298.688 144.255 298.354 144.255C298.055 144.255 297.806 144.164 297.606 143.982C297.413 143.795 297.316 143.49 297.316 143.068ZM78.7324 156.15H82.3623C84.0674 156.15 85.3008 156.405 86.0625 156.915C86.8242 157.425 87.2051 158.23 87.2051 159.332C87.2051 160.094 86.9912 160.724 86.5635 161.222C86.1416 161.714 85.5234 162.033 84.709 162.18V162.268C86.6602 162.602 87.6357 163.627 87.6357 165.344C87.6357 166.492 87.2461 167.389 86.4668 168.033C85.6934 168.678 84.6094 169 83.2148 169H78.7324V156.15ZM80.2266 161.652H82.6875C83.7422 161.652 84.501 161.488 84.9639 161.16C85.4268 160.826 85.6582 160.267 85.6582 159.481C85.6582 158.761 85.4004 158.242 84.8848 157.926C84.3691 157.604 83.5488 157.442 82.4238 157.442H80.2266V161.652ZM80.2266 162.918V167.726H82.9072C83.9443 167.726 84.7236 167.526 85.2451 167.128C85.7725 166.724 86.0361 166.094 86.0361 165.238C86.0361 164.441 85.7666 163.855 85.2275 163.48C84.6943 163.105 83.8799 162.918 82.7842 162.918H80.2266ZM98.499 164.175C98.499 165.745 98.1035 166.973 97.3125 167.857C96.5215 168.736 95.4287 169.176 94.0342 169.176C93.1729 169.176 92.4082 168.974 91.7402 168.569C91.0723 168.165 90.5566 167.585 90.1934 166.829C89.8301 166.073 89.6484 165.188 89.6484 164.175C89.6484 162.604 90.041 161.383 90.8262 160.51C91.6113 159.631 92.7012 159.191 94.0957 159.191C95.4434 159.191 96.5127 159.64 97.3037 160.536C98.1006 161.433 98.499 162.646 98.499 164.175ZM91.1602 164.175C91.1602 165.405 91.4062 166.343 91.8984 166.987C92.3906 167.632 93.1143 167.954 94.0693 167.954C95.0244 167.954 95.748 167.635 96.2402 166.996C96.7383 166.352 96.9873 165.411 96.9873 164.175C96.9873 162.95 96.7383 162.021 96.2402 161.389C95.748 160.75 95.0186 160.431 94.0518 160.431C93.0967 160.431 92.376 160.744 91.8896 161.371C91.4033 161.998 91.1602 162.933 91.1602 164.175ZM102.902 163.366C104.725 163.366 105.636 162.862 105.636 161.854C105.636 160.905 104.897 160.431 103.421 160.431C102.97 160.431 102.56 160.472 102.19 160.554C101.821 160.636 101.338 160.8 100.74 161.046L100.222 159.859C101.218 159.414 102.305 159.191 103.482 159.191C104.59 159.191 105.463 159.42 106.102 159.877C106.74 160.328 107.06 160.946 107.06 161.731C107.06 162.81 106.459 163.516 105.258 163.85V163.92C105.996 164.137 106.535 164.447 106.875 164.852C107.215 165.25 107.385 165.751 107.385 166.354C107.385 167.245 107.024 167.939 106.304 168.438C105.589 168.93 104.599 169.176 103.333 169.176C101.944 169.176 100.872 168.968 100.116 168.552V167.216C101.188 167.72 102.272 167.972 103.368 167.972C104.212 167.972 104.848 167.828 105.275 167.541C105.709 167.248 105.926 166.829 105.926 166.284C105.926 165.165 105.015 164.605 103.192 164.605H101.856V163.366H102.902ZM114.768 167.594L115.04 166.776L115.418 165.739L118.028 159.385H119.883V169H118.591V161.046L118.415 161.556L117.905 162.9L115.418 169H114.196L111.709 162.883C111.398 162.098 111.185 161.485 111.067 161.046V169H109.767V159.385H111.551L114.073 165.493C114.325 166.138 114.557 166.838 114.768 167.594ZM131.317 164.175C131.317 165.745 130.922 166.973 130.131 167.857C129.34 168.736 128.247 169.176 126.853 169.176C125.991 169.176 125.227 168.974 124.559 168.569C123.891 168.165 123.375 167.585 123.012 166.829C122.648 166.073 122.467 165.188 122.467 164.175C122.467 162.604 122.859 161.383 123.645 160.51C124.43 159.631 125.52 159.191 126.914 159.191C128.262 159.191 129.331 159.64 130.122 160.536C130.919 161.433 131.317 162.646 131.317 164.175ZM123.979 164.175C123.979 165.405 124.225 166.343 124.717 166.987C125.209 167.632 125.933 167.954 126.888 167.954C127.843 167.954 128.566 167.635 129.059 166.996C129.557 166.352 129.806 165.411 129.806 164.175C129.806 162.95 129.557 162.021 129.059 161.389C128.566 160.75 127.837 160.431 126.87 160.431C125.915 160.431 125.194 160.744 124.708 161.371C124.222 161.998 123.979 162.933 123.979 164.175ZM138.278 159.385H139.623V164.052L143.604 159.385H145.204L141.179 164.052L145.547 169H143.859L139.623 164.122V169H138.278V164.122L134.051 169H132.372L136.731 164.052L132.715 159.385H134.314L138.278 164.052V159.385ZM148.597 159.367V163.401H153.993V159.367H155.452V169H153.993V164.658H148.597V169H147.138V159.367H148.597ZM166.86 164.175C166.86 165.745 166.465 166.973 165.674 167.857C164.883 168.736 163.79 169.176 162.396 169.176C161.534 169.176 160.77 168.974 160.102 168.569C159.434 168.165 158.918 167.585 158.555 166.829C158.191 166.073 158.01 165.188 158.01 164.175C158.01 162.604 158.402 161.383 159.188 160.51C159.973 159.631 161.062 159.191 162.457 159.191C163.805 159.191 164.874 159.64 165.665 160.536C166.462 161.433 166.86 162.646 166.86 164.175ZM159.521 164.175C159.521 165.405 159.768 166.343 160.26 166.987C160.752 167.632 161.476 167.954 162.431 167.954C163.386 167.954 164.109 167.635 164.602 166.996C165.1 166.352 165.349 165.411 165.349 164.175C165.349 162.95 165.1 162.021 164.602 161.389C164.109 160.75 163.38 160.431 162.413 160.431C161.458 160.431 160.737 160.744 160.251 161.371C159.765 161.998 159.521 162.933 159.521 164.175ZM173.276 169.176C171.882 169.176 170.801 168.748 170.033 167.893C169.271 167.031 168.891 165.815 168.891 164.245C168.891 162.634 169.277 161.389 170.051 160.51C170.83 159.631 171.938 159.191 173.373 159.191C173.836 159.191 174.299 159.241 174.762 159.341C175.225 159.44 175.588 159.558 175.852 159.692L175.403 160.932C175.081 160.803 174.729 160.697 174.349 160.615C173.968 160.527 173.631 160.483 173.338 160.483C171.381 160.483 170.402 161.731 170.402 164.228C170.402 165.411 170.64 166.319 171.114 166.952C171.595 167.585 172.304 167.901 173.241 167.901C174.044 167.901 174.867 167.729 175.711 167.383V168.675C175.066 169.009 174.255 169.176 173.276 169.176ZM184.5 160.615H181.371V169H179.912V160.615H176.818V159.367H184.5V160.615ZM187.866 163.349H190.837C193.298 163.349 194.528 164.254 194.528 166.064C194.528 167.014 194.206 167.74 193.562 168.244C192.923 168.748 191.985 169 190.749 169H186.407V159.367H187.866V163.349ZM187.866 164.605V167.778H190.679C191.452 167.778 192.044 167.644 192.454 167.374C192.864 167.104 193.069 166.697 193.069 166.152C193.069 165.619 192.879 165.229 192.498 164.983C192.123 164.731 191.502 164.605 190.635 164.605H187.866ZM203.194 169H201.735V159.367H209.821V169H208.345V160.633H203.194V169ZM221.229 164.175C221.229 165.745 220.834 166.973 220.043 167.857C219.252 168.736 218.159 169.176 216.765 169.176C215.903 169.176 215.139 168.974 214.471 168.569C213.803 168.165 213.287 167.585 212.924 166.829C212.561 166.073 212.379 165.188 212.379 164.175C212.379 162.604 212.771 161.383 213.557 160.51C214.342 159.631 215.432 159.191 216.826 159.191C218.174 159.191 219.243 159.64 220.034 160.536C220.831 161.433 221.229 162.646 221.229 164.175ZM213.891 164.175C213.891 165.405 214.137 166.343 214.629 166.987C215.121 167.632 215.845 167.954 216.8 167.954C217.755 167.954 218.479 167.635 218.971 166.996C219.469 166.352 219.718 165.411 219.718 164.175C219.718 162.95 219.469 162.021 218.971 161.389C218.479 160.75 217.749 160.431 216.782 160.431C215.827 160.431 215.106 160.744 214.62 161.371C214.134 161.998 213.891 162.933 213.891 164.175ZM229.412 159.367H231.012L226.854 164.017L231.354 169H229.649L225.255 164.122V169H223.796V159.367H225.255V164.052L229.412 159.367ZM239.071 169L238.781 167.629H238.711C238.23 168.232 237.75 168.643 237.27 168.859C236.795 169.07 236.2 169.176 235.485 169.176C234.53 169.176 233.78 168.93 233.235 168.438C232.696 167.945 232.427 167.245 232.427 166.337C232.427 164.392 233.982 163.372 237.094 163.278L238.729 163.226V162.628C238.729 161.872 238.564 161.315 238.236 160.958C237.914 160.595 237.396 160.413 236.681 160.413C235.878 160.413 234.97 160.659 233.956 161.151L233.508 160.035C233.982 159.777 234.501 159.575 235.063 159.429C235.632 159.282 236.2 159.209 236.769 159.209C237.917 159.209 238.767 159.464 239.317 159.974C239.874 160.483 240.152 161.301 240.152 162.426V169H239.071ZM235.775 167.972C236.684 167.972 237.396 167.723 237.911 167.225C238.433 166.727 238.693 166.029 238.693 165.133V164.263L237.234 164.324C236.074 164.365 235.236 164.547 234.721 164.869C234.211 165.186 233.956 165.681 233.956 166.354C233.956 166.882 234.114 167.283 234.431 167.559C234.753 167.834 235.201 167.972 235.775 167.972ZM245.004 163.366C246.826 163.366 247.737 162.862 247.737 161.854C247.737 160.905 246.999 160.431 245.522 160.431C245.071 160.431 244.661 160.472 244.292 160.554C243.923 160.636 243.439 160.8 242.842 161.046L242.323 159.859C243.319 159.414 244.406 159.191 245.584 159.191C246.691 159.191 247.564 159.42 248.203 159.877C248.842 160.328 249.161 160.946 249.161 161.731C249.161 162.81 248.561 163.516 247.359 163.85V163.92C248.098 164.137 248.637 164.447 248.977 164.852C249.316 165.25 249.486 165.751 249.486 166.354C249.486 167.245 249.126 167.939 248.405 168.438C247.69 168.93 246.7 169.176 245.435 169.176C244.046 169.176 242.974 168.968 242.218 168.552V167.216C243.29 167.72 244.374 167.972 245.47 167.972C246.313 167.972 246.949 167.828 247.377 167.541C247.811 167.248 248.027 166.829 248.027 166.284C248.027 165.165 247.116 164.605 245.294 164.605H243.958V163.366H245.004ZM257.792 169L257.502 167.629H257.432C256.951 168.232 256.471 168.643 255.99 168.859C255.516 169.07 254.921 169.176 254.206 169.176C253.251 169.176 252.501 168.93 251.956 168.438C251.417 167.945 251.147 167.245 251.147 166.337C251.147 164.392 252.703 163.372 255.814 163.278L257.449 163.226V162.628C257.449 161.872 257.285 161.315 256.957 160.958C256.635 160.595 256.116 160.413 255.401 160.413C254.599 160.413 253.69 160.659 252.677 161.151L252.229 160.035C252.703 159.777 253.222 159.575 253.784 159.429C254.353 159.282 254.921 159.209 255.489 159.209C256.638 159.209 257.487 159.464 258.038 159.974C258.595 160.483 258.873 161.301 258.873 162.426V169H257.792ZM254.496 167.972C255.404 167.972 256.116 167.723 256.632 167.225C257.153 166.727 257.414 166.029 257.414 165.133V164.263L255.955 164.324C254.795 164.365 253.957 164.547 253.441 164.869C252.932 165.186 252.677 165.681 252.677 166.354C252.677 166.882 252.835 167.283 253.151 167.559C253.474 167.834 253.922 167.972 254.496 167.972ZM274.878 164.175C274.878 165.745 274.482 166.973 273.691 167.857C272.9 168.736 271.808 169.176 270.413 169.176C269.552 169.176 268.787 168.974 268.119 168.569C267.451 168.165 266.936 167.585 266.572 166.829C266.209 166.073 266.027 165.188 266.027 164.175C266.027 162.604 266.42 161.383 267.205 160.51C267.99 159.631 269.08 159.191 270.475 159.191C271.822 159.191 272.892 159.64 273.683 160.536C274.479 161.433 274.878 162.646 274.878 164.175ZM267.539 164.175C267.539 165.405 267.785 166.343 268.277 166.987C268.77 167.632 269.493 167.954 270.448 167.954C271.403 167.954 272.127 167.635 272.619 166.996C273.117 166.352 273.366 165.411 273.366 164.175C273.366 162.95 273.117 162.021 272.619 161.389C272.127 160.75 271.397 160.431 270.431 160.431C269.476 160.431 268.755 160.744 268.269 161.371C267.782 161.998 267.539 162.933 267.539 164.175ZM276.943 163.226C276.943 161.116 277.254 159.473 277.875 158.295C278.496 157.111 279.48 156.373 280.828 156.08C282.504 155.723 283.98 155.433 285.258 155.21L285.53 156.493C283.497 156.833 282.044 157.103 281.171 157.302C280.321 157.495 279.683 157.952 279.255 158.673C278.833 159.394 278.602 160.375 278.561 161.617H278.666C279.029 161.125 279.498 160.738 280.072 160.457C280.646 160.176 281.247 160.035 281.874 160.035C283.058 160.035 283.98 160.419 284.643 161.187C285.305 161.954 285.636 163.018 285.636 164.377C285.636 165.883 285.252 167.061 284.484 167.91C283.717 168.754 282.647 169.176 281.276 169.176C279.923 169.176 278.862 168.657 278.095 167.62C277.327 166.583 276.943 165.118 276.943 163.226ZM281.408 167.954C283.195 167.954 284.089 166.814 284.089 164.535C284.089 162.361 283.277 161.274 281.654 161.274C281.209 161.274 280.778 161.368 280.362 161.556C279.952 161.737 279.574 161.98 279.229 162.285C278.889 162.59 278.625 162.903 278.438 163.226C278.438 164.767 278.681 165.941 279.167 166.75C279.653 167.553 280.4 167.954 281.408 167.954ZM291.533 163.349H294.284C295.597 163.349 296.566 163.574 297.193 164.025C297.826 164.477 298.143 165.156 298.143 166.064C298.143 167.037 297.814 167.77 297.158 168.262C296.508 168.754 295.538 169 294.249 169H290.074V160.615H286.998V159.367H291.533V163.349ZM296.701 166.152C296.701 165.607 296.52 165.215 296.156 164.975C295.793 164.729 295.151 164.605 294.231 164.605H291.533V167.778H294.284C295.896 167.778 296.701 167.236 296.701 166.152ZM304.77 169.176C303.346 169.176 302.221 168.742 301.395 167.875C300.574 167.008 300.164 165.804 300.164 164.263C300.164 162.71 300.545 161.477 301.307 160.562C302.074 159.648 303.103 159.191 304.392 159.191C305.599 159.191 306.554 159.59 307.257 160.387C307.96 161.178 308.312 162.224 308.312 163.524V164.447H301.676C301.705 165.578 301.989 166.437 302.528 167.022C303.073 167.608 303.838 167.901 304.822 167.901C305.859 167.901 306.885 167.685 307.898 167.251V168.552C307.383 168.774 306.894 168.933 306.431 169.026C305.974 169.126 305.42 169.176 304.77 169.176ZM304.374 160.413C303.601 160.413 302.982 160.665 302.52 161.169C302.062 161.673 301.793 162.37 301.711 163.261H306.747C306.747 162.341 306.542 161.638 306.132 161.151C305.722 160.659 305.136 160.413 304.374 160.413ZM316.424 159.367H318.023L313.866 164.017L318.366 169H316.661L312.267 164.122V169H310.808V159.367H312.267V164.052L316.424 159.367ZM326.654 160.615H323.525V169H322.066V160.615H318.973V159.367H326.654V160.615ZM334.485 169L334.195 167.629H334.125C333.645 168.232 333.164 168.643 332.684 168.859C332.209 169.07 331.614 169.176 330.899 169.176C329.944 169.176 329.194 168.93 328.649 168.438C328.11 167.945 327.841 167.245 327.841 166.337C327.841 164.392 329.396 163.372 332.508 163.278L334.143 163.226V162.628C334.143 161.872 333.979 161.315 333.65 160.958C333.328 160.595 332.81 160.413 332.095 160.413C331.292 160.413 330.384 160.659 329.37 161.151L328.922 160.035C329.396 159.777 329.915 159.575 330.478 159.429C331.046 159.282 331.614 159.209 332.183 159.209C333.331 159.209 334.181 159.464 334.731 159.974C335.288 160.483 335.566 161.301 335.566 162.426V169H334.485ZM331.189 167.972C332.098 167.972 332.81 167.723 333.325 167.225C333.847 166.727 334.107 166.029 334.107 165.133V164.263L332.648 164.324C331.488 164.365 330.65 164.547 330.135 164.869C329.625 165.186 329.37 165.681 329.37 166.354C329.37 166.882 329.528 167.283 329.845 167.559C330.167 167.834 330.615 167.972 331.189 167.972ZM155.461 186.784C155.461 187.411 155.279 187.889 154.916 188.217C154.559 188.539 154.055 188.756 153.404 188.867V188.946C154.225 189.058 154.822 189.298 155.197 189.667C155.578 190.036 155.769 190.546 155.769 191.196C155.769 192.093 155.438 192.784 154.775 193.271C154.119 193.757 153.158 194 151.893 194H147.647V184.367H151.875C154.266 184.367 155.461 185.173 155.461 186.784ZM154.31 191.1C154.31 190.578 154.11 190.2 153.712 189.966C153.319 189.726 152.666 189.605 151.752 189.605H149.106V192.778H151.787C153.469 192.778 154.31 192.219 154.31 191.1ZM154.037 186.925C154.037 186.456 153.855 186.125 153.492 185.932C153.135 185.732 152.59 185.633 151.857 185.633H149.106V188.349H151.576C152.479 188.349 153.114 188.237 153.483 188.015C153.853 187.792 154.037 187.429 154.037 186.925ZM170.938 197.331H169.523V194H162.791V197.331H161.385V192.743H162.141C162.926 191.677 163.541 190.426 163.986 188.99C164.432 187.555 164.663 186.014 164.681 184.367H169.559V192.743H170.938V197.331ZM168.152 192.743V185.519H165.99C165.914 186.819 165.662 188.138 165.234 189.474C164.812 190.804 164.285 191.894 163.652 192.743H168.152ZM176.941 194.176C175.518 194.176 174.393 193.742 173.566 192.875C172.746 192.008 172.336 190.804 172.336 189.263C172.336 187.71 172.717 186.477 173.479 185.562C174.246 184.648 175.274 184.191 176.563 184.191C177.771 184.191 178.726 184.59 179.429 185.387C180.132 186.178 180.483 187.224 180.483 188.524V189.447H173.848C173.877 190.578 174.161 191.437 174.7 192.022C175.245 192.608 176.01 192.901 176.994 192.901C178.031 192.901 179.057 192.685 180.07 192.251V193.552C179.555 193.774 179.065 193.933 178.603 194.026C178.146 194.126 177.592 194.176 176.941 194.176ZM176.546 185.413C175.772 185.413 175.154 185.665 174.691 186.169C174.234 186.673 173.965 187.37 173.883 188.261H178.919C178.919 187.341 178.714 186.638 178.304 186.151C177.894 185.659 177.308 185.413 176.546 185.413ZM184.438 184.367V188.401H189.835V184.367H191.294V194H189.835V189.658H184.438V194H182.979V184.367H184.438ZM195.847 188.349H198.817C201.278 188.349 202.509 189.254 202.509 191.064C202.509 192.014 202.187 192.74 201.542 193.244C200.903 193.748 199.966 194 198.729 194H194.388V184.367H195.847V188.349ZM195.847 189.605V192.778H198.659C199.433 192.778 200.024 192.644 200.435 192.374C200.845 192.104 201.05 191.697 201.05 191.152C201.05 190.619 200.859 190.229 200.479 189.983C200.104 189.731 199.482 189.605 198.615 189.605H195.847ZM211.553 188.366C213.375 188.366 214.286 187.862 214.286 186.854C214.286 185.905 213.548 185.431 212.071 185.431C211.62 185.431 211.21 185.472 210.841 185.554C210.472 185.636 209.988 185.8 209.391 186.046L208.872 184.859C209.868 184.414 210.955 184.191 212.133 184.191C213.24 184.191 214.113 184.42 214.752 184.877C215.391 185.328 215.71 185.946 215.71 186.731C215.71 187.81 215.109 188.516 213.908 188.85V188.92C214.646 189.137 215.186 189.447 215.525 189.852C215.865 190.25 216.035 190.751 216.035 191.354C216.035 192.245 215.675 192.939 214.954 193.438C214.239 193.93 213.249 194.176 211.983 194.176C210.595 194.176 209.522 193.968 208.767 193.552V192.216C209.839 192.72 210.923 192.972 212.019 192.972C212.862 192.972 213.498 192.828 213.926 192.541C214.359 192.248 214.576 191.829 214.576 191.284C214.576 190.165 213.665 189.605 211.843 189.605H210.507V188.366H211.553ZM224.341 194L224.051 192.629H223.98C223.5 193.232 223.02 193.643 222.539 193.859C222.064 194.07 221.47 194.176 220.755 194.176C219.8 194.176 219.05 193.93 218.505 193.438C217.966 192.945 217.696 192.245 217.696 191.337C217.696 189.392 219.252 188.372 222.363 188.278L223.998 188.226V187.628C223.998 186.872 223.834 186.315 223.506 185.958C223.184 185.595 222.665 185.413 221.95 185.413C221.147 185.413 220.239 185.659 219.226 186.151L218.777 185.035C219.252 184.777 219.771 184.575 220.333 184.429C220.901 184.282 221.47 184.209 222.038 184.209C223.187 184.209 224.036 184.464 224.587 184.974C225.144 185.483 225.422 186.301 225.422 187.426V194H224.341ZM221.045 192.972C221.953 192.972 222.665 192.723 223.181 192.225C223.702 191.727 223.963 191.029 223.963 190.133V189.263L222.504 189.324C221.344 189.365 220.506 189.547 219.99 189.869C219.48 190.186 219.226 190.681 219.226 191.354C219.226 191.882 219.384 192.283 219.7 192.559C220.022 192.834 220.471 192.972 221.045 192.972ZM228.92 194H227.215L229.983 189.931C229.239 189.767 228.668 189.45 228.27 188.981C227.877 188.507 227.681 187.912 227.681 187.197C227.681 186.318 227.977 185.627 228.568 185.123C229.16 184.619 229.986 184.367 231.047 184.367H235.336V194H233.877V190.15H231.442L228.92 194ZM229.104 187.215C229.104 188.328 229.913 188.885 231.53 188.885H233.877V185.633H231.231C229.813 185.633 229.104 186.16 229.104 187.215ZM246.252 186.784C246.252 187.411 246.07 187.889 245.707 188.217C245.35 188.539 244.846 188.756 244.195 188.867V188.946C245.016 189.058 245.613 189.298 245.988 189.667C246.369 190.036 246.56 190.546 246.56 191.196C246.56 192.093 246.229 192.784 245.566 193.271C244.91 193.757 243.949 194 242.684 194H238.438V184.367H242.666C245.057 184.367 246.252 185.173 246.252 186.784ZM245.101 191.1C245.101 190.578 244.901 190.2 244.503 189.966C244.11 189.726 243.457 189.605 242.543 189.605H239.897V192.778H242.578C244.26 192.778 245.101 192.219 245.101 191.1ZM244.828 186.925C244.828 186.456 244.646 186.125 244.283 185.932C243.926 185.732 243.381 185.633 242.648 185.633H239.897V188.349H242.367C243.27 188.349 243.905 188.237 244.274 188.015C244.644 187.792 244.828 187.429 244.828 186.925ZM254.303 184.367H255.902L251.745 189.017L256.245 194H254.54L250.146 189.122V194H248.687V184.367H250.146V189.052L254.303 184.367ZM259.409 184.367V190.476L259.348 192.075L259.321 192.576L264.533 184.367H266.353V194H264.99V188.111L265.017 186.951L265.061 185.809L259.857 194H258.038V184.367H259.409Z" fill="#0D1B44"/>
<rect x="0.5" y="0.5" width="413" height="228" stroke="#0D1B44"/>
</svg>
