<svg width="413" height="229" viewBox="0 0 413 229" fill="none" xmlns="http://www.w3.org/2000/svg">
<rect x="0.5" y="0.5" width="412" height="228" fill="white"/>
<path d="M206.5 102.333C224.909 102.333 239.833 87.4096 239.833 69.0001C239.833 50.5906 224.909 35.6667 206.5 35.6667C188.09 35.6667 173.167 50.5906 173.167 69.0001C173.167 87.4096 188.09 102.333 206.5 102.333Z" stroke="#0D1B44" stroke-width="1.83333" stroke-linecap="round" stroke-linejoin="round"/>
<path d="M206.5 49V69L219.833 75.6667" stroke="#0D1B44" stroke-width="1.83333" stroke-linecap="round" stroke-linejoin="round"/>
<path d="M115.498 144L111.139 132.609H111.068C111.15 133.512 111.191 134.584 111.191 135.826V144H109.812V131.15H112.062L116.131 141.75H116.201L120.306 131.15H122.538V144H121.044V135.721C121.044 134.771 121.085 133.74 121.167 132.627H121.097L116.702 144H115.498ZM127.311 138.349H129.938C131.163 138.349 132.068 138.577 132.654 139.034C133.246 139.485 133.542 140.162 133.542 141.064C133.542 142.031 133.229 142.764 132.602 143.262C131.98 143.754 131.063 144 129.851 144H125.852V134.367H127.311V138.349ZM136.618 144H135.159V134.367H136.618V144ZM127.311 139.605V142.778H129.78C131.327 142.778 132.101 142.236 132.101 141.152C132.101 140.613 131.922 140.221 131.564 139.975C131.207 139.729 130.598 139.605 129.736 139.605H127.311ZM148.879 144.176C148.252 144.176 147.678 144.062 147.156 143.833C146.641 143.599 146.207 143.241 145.855 142.761H145.75C145.82 143.323 145.855 143.856 145.855 144.36V148.324H144.396V134.367H145.583L145.785 135.686H145.855C146.23 135.158 146.667 134.777 147.165 134.543C147.663 134.309 148.234 134.191 148.879 134.191C150.156 134.191 151.141 134.628 151.832 135.501C152.529 136.374 152.878 137.599 152.878 139.175C152.878 140.757 152.523 141.987 151.814 142.866C151.111 143.739 150.133 144.176 148.879 144.176ZM148.668 135.431C147.684 135.431 146.972 135.703 146.532 136.248C146.093 136.793 145.867 137.66 145.855 138.85V139.175C145.855 140.528 146.081 141.498 146.532 142.084C146.983 142.664 147.707 142.954 148.703 142.954C149.535 142.954 150.186 142.617 150.654 141.943C151.129 141.27 151.366 140.341 151.366 139.157C151.366 137.956 151.129 137.036 150.654 136.397C150.186 135.753 149.523 135.431 148.668 135.431ZM161.359 144L161.069 142.629H160.999C160.519 143.232 160.038 143.643 159.558 143.859C159.083 144.07 158.488 144.176 157.773 144.176C156.818 144.176 156.068 143.93 155.523 143.438C154.984 142.945 154.715 142.245 154.715 141.337C154.715 139.392 156.271 138.372 159.382 138.278L161.017 138.226V137.628C161.017 136.872 160.853 136.315 160.524 135.958C160.202 135.595 159.684 135.413 158.969 135.413C158.166 135.413 157.258 135.659 156.244 136.151L155.796 135.035C156.271 134.777 156.789 134.575 157.352 134.429C157.92 134.282 158.488 134.209 159.057 134.209C160.205 134.209 161.055 134.464 161.605 134.974C162.162 135.483 162.44 136.301 162.44 137.426V144H161.359ZM158.063 142.972C158.972 142.972 159.684 142.723 160.199 142.225C160.721 141.727 160.981 141.029 160.981 140.133V139.263L159.522 139.324C158.362 139.365 157.524 139.547 157.009 139.869C156.499 140.186 156.244 140.681 156.244 141.354C156.244 141.882 156.402 142.283 156.719 142.559C157.041 142.834 157.489 142.972 158.063 142.972ZM164.954 138.226C164.954 136.116 165.265 134.473 165.886 133.295C166.507 132.111 167.491 131.373 168.839 131.08C170.515 130.723 171.991 130.433 173.269 130.21L173.541 131.493C171.508 131.833 170.055 132.103 169.182 132.302C168.332 132.495 167.693 132.952 167.266 133.673C166.844 134.394 166.612 135.375 166.571 136.617H166.677C167.04 136.125 167.509 135.738 168.083 135.457C168.657 135.176 169.258 135.035 169.885 135.035C171.068 135.035 171.991 135.419 172.653 136.187C173.315 136.954 173.646 138.018 173.646 139.377C173.646 140.883 173.263 142.061 172.495 142.91C171.728 143.754 170.658 144.176 169.287 144.176C167.934 144.176 166.873 143.657 166.105 142.62C165.338 141.583 164.954 140.118 164.954 138.226ZM169.419 142.954C171.206 142.954 172.1 141.814 172.1 139.535C172.1 137.361 171.288 136.274 169.665 136.274C169.22 136.274 168.789 136.368 168.373 136.556C167.963 136.737 167.585 136.98 167.239 137.285C166.899 137.59 166.636 137.903 166.448 138.226C166.448 139.767 166.691 140.941 167.178 141.75C167.664 142.553 168.411 142.954 169.419 142.954ZM184.51 139.175C184.51 140.745 184.114 141.973 183.323 142.857C182.532 143.736 181.439 144.176 180.045 144.176C179.184 144.176 178.419 143.974 177.751 143.569C177.083 143.165 176.567 142.585 176.204 141.829C175.841 141.073 175.659 140.188 175.659 139.175C175.659 137.604 176.052 136.383 176.837 135.51C177.622 134.631 178.712 134.191 180.106 134.191C181.454 134.191 182.523 134.64 183.314 135.536C184.111 136.433 184.51 137.646 184.51 139.175ZM177.171 139.175C177.171 140.405 177.417 141.343 177.909 141.987C178.401 142.632 179.125 142.954 180.08 142.954C181.035 142.954 181.759 142.635 182.251 141.996C182.749 141.352 182.998 140.411 182.998 139.175C182.998 137.95 182.749 137.021 182.251 136.389C181.759 135.75 181.029 135.431 180.062 135.431C179.107 135.431 178.387 135.744 177.9 136.371C177.414 136.998 177.171 137.933 177.171 139.175ZM193.571 135.615H190.442V144H188.983V135.615H185.89V134.367H193.571V135.615ZM201.402 144L201.112 142.629H201.042C200.562 143.232 200.081 143.643 199.601 143.859C199.126 144.07 198.531 144.176 197.816 144.176C196.861 144.176 196.111 143.93 195.566 143.438C195.027 142.945 194.758 142.245 194.758 141.337C194.758 139.392 196.313 138.372 199.425 138.278L201.06 138.226V137.628C201.06 136.872 200.896 136.315 200.567 135.958C200.245 135.595 199.727 135.413 199.012 135.413C198.209 135.413 197.301 135.659 196.287 136.151L195.839 135.035C196.313 134.777 196.832 134.575 197.395 134.429C197.963 134.282 198.531 134.209 199.1 134.209C200.248 134.209 201.098 134.464 201.648 134.974C202.205 135.483 202.483 136.301 202.483 137.426V144H201.402ZM198.106 142.972C199.015 142.972 199.727 142.723 200.242 142.225C200.764 141.727 201.024 141.029 201.024 140.133V139.263L199.565 139.324C198.405 139.365 197.567 139.547 197.052 139.869C196.542 140.186 196.287 140.681 196.287 141.354C196.287 141.882 196.445 142.283 196.762 142.559C197.084 142.834 197.532 142.972 198.106 142.972ZM209.567 144.176C208.144 144.176 207.019 143.742 206.192 142.875C205.372 142.008 204.962 140.804 204.962 139.263C204.962 137.71 205.343 136.477 206.104 135.562C206.872 134.648 207.9 134.191 209.189 134.191C210.396 134.191 211.352 134.59 212.055 135.387C212.758 136.178 213.109 137.224 213.109 138.524V139.447H206.474C206.503 140.578 206.787 141.437 207.326 142.022C207.871 142.608 208.636 142.901 209.62 142.901C210.657 142.901 211.683 142.685 212.696 142.251V143.552C212.181 143.774 211.691 143.933 211.229 144.026C210.771 144.126 210.218 144.176 209.567 144.176ZM209.172 135.413C208.398 135.413 207.78 135.665 207.317 136.169C206.86 136.673 206.591 137.37 206.509 138.261H211.545C211.545 137.341 211.34 136.638 210.93 136.151C210.52 135.659 209.934 135.413 209.172 135.413ZM220.606 142.594L220.879 141.776L221.257 140.739L223.867 134.385H225.722V144H224.43V136.046L224.254 136.556L223.744 137.9L221.257 144H220.035L217.548 137.883C217.237 137.098 217.023 136.485 216.906 136.046V144H215.605V134.385H217.39L219.912 140.493C220.164 141.138 220.396 141.838 220.606 142.594ZM233.017 138.226C233.017 136.116 233.327 134.473 233.948 133.295C234.569 132.111 235.554 131.373 236.901 131.08C238.577 130.723 240.054 130.433 241.331 130.21L241.604 131.493C239.57 131.833 238.117 132.103 237.244 132.302C236.395 132.495 235.756 132.952 235.328 133.673C234.906 134.394 234.675 135.375 234.634 136.617H234.739C235.103 136.125 235.571 135.738 236.146 135.457C236.72 135.176 237.32 135.035 237.947 135.035C239.131 135.035 240.054 135.419 240.716 136.187C241.378 136.954 241.709 138.018 241.709 139.377C241.709 140.883 241.325 142.061 240.558 142.91C239.79 143.754 238.721 144.176 237.35 144.176C235.996 144.176 234.936 143.657 234.168 142.62C233.4 141.583 233.017 140.118 233.017 138.226ZM237.481 142.954C239.269 142.954 240.162 141.814 240.162 139.535C240.162 137.361 239.351 136.274 237.728 136.274C237.282 136.274 236.852 136.368 236.436 136.556C236.025 136.737 235.647 136.98 235.302 137.285C234.962 137.59 234.698 137.903 234.511 138.226C234.511 139.767 234.754 140.941 235.24 141.75C235.727 142.553 236.474 142.954 237.481 142.954ZM245.717 138.349H248.345C249.569 138.349 250.475 138.577 251.061 139.034C251.652 139.485 251.948 140.162 251.948 141.064C251.948 142.031 251.635 142.764 251.008 143.262C250.387 143.754 249.47 144 248.257 144H244.258V134.367H245.717V138.349ZM255.024 144H253.565V134.367H255.024V144ZM245.717 139.605V142.778H248.187C249.733 142.778 250.507 142.236 250.507 141.152C250.507 140.613 250.328 140.221 249.971 139.975C249.613 139.729 249.004 139.605 248.143 139.605H245.717ZM261.977 144.176C260.582 144.176 259.501 143.748 258.733 142.893C257.972 142.031 257.591 140.815 257.591 139.245C257.591 137.634 257.978 136.389 258.751 135.51C259.53 134.631 260.638 134.191 262.073 134.191C262.536 134.191 262.999 134.241 263.462 134.341C263.925 134.44 264.288 134.558 264.552 134.692L264.104 135.932C263.781 135.803 263.43 135.697 263.049 135.615C262.668 135.527 262.331 135.483 262.038 135.483C260.081 135.483 259.103 136.731 259.103 139.228C259.103 140.411 259.34 141.319 259.814 141.952C260.295 142.585 261.004 142.901 261.941 142.901C262.744 142.901 263.567 142.729 264.411 142.383V143.675C263.767 144.009 262.955 144.176 261.977 144.176ZM273.2 135.615H270.071V144H268.612V135.615H265.519V134.367H273.2V135.615ZM279.59 144.176C278.963 144.176 278.389 144.062 277.867 143.833C277.352 143.599 276.918 143.241 276.566 142.761H276.461C276.531 143.323 276.566 143.856 276.566 144.36V148.324H275.107V134.367H276.294L276.496 135.686H276.566C276.941 135.158 277.378 134.777 277.876 134.543C278.374 134.309 278.945 134.191 279.59 134.191C280.867 134.191 281.852 134.628 282.543 135.501C283.24 136.374 283.589 137.599 283.589 139.175C283.589 140.757 283.234 141.987 282.525 142.866C281.822 143.739 280.844 144.176 279.59 144.176ZM279.379 135.431C278.395 135.431 277.683 135.703 277.243 136.248C276.804 136.793 276.578 137.66 276.566 138.85V139.175C276.566 140.528 276.792 141.498 277.243 142.084C277.694 142.664 278.418 142.954 279.414 142.954C280.246 142.954 280.896 142.617 281.365 141.943C281.84 141.27 282.077 140.341 282.077 139.157C282.077 137.956 281.84 137.036 281.365 136.397C280.896 135.753 280.234 135.431 279.379 135.431ZM294.461 139.175C294.461 140.745 294.065 141.973 293.274 142.857C292.483 143.736 291.391 144.176 289.996 144.176C289.135 144.176 288.37 143.974 287.702 143.569C287.034 143.165 286.519 142.585 286.155 141.829C285.792 141.073 285.61 140.188 285.61 139.175C285.61 137.604 286.003 136.383 286.788 135.51C287.573 134.631 288.663 134.191 290.058 134.191C291.405 134.191 292.475 134.64 293.266 135.536C294.062 136.433 294.461 137.646 294.461 139.175ZM287.122 139.175C287.122 140.405 287.368 141.343 287.86 141.987C288.353 142.632 289.076 142.954 290.031 142.954C290.986 142.954 291.71 142.635 292.202 141.996C292.7 141.352 292.949 140.411 292.949 139.175C292.949 137.95 292.7 137.021 292.202 136.389C291.71 135.75 290.98 135.431 290.014 135.431C289.059 135.431 288.338 135.744 287.852 136.371C287.365 136.998 287.122 137.933 287.122 139.175ZM296.816 143.068C296.816 142.676 296.904 142.38 297.08 142.181C297.262 141.976 297.52 141.873 297.854 141.873C298.193 141.873 298.457 141.976 298.645 142.181C298.838 142.38 298.935 142.676 298.935 143.068C298.935 143.449 298.838 143.742 298.645 143.947C298.451 144.152 298.188 144.255 297.854 144.255C297.555 144.255 297.306 144.164 297.106 143.982C296.913 143.795 296.816 143.49 296.816 143.068ZM78.2324 156.15H81.8623C83.5674 156.15 84.8008 156.405 85.5625 156.915C86.3242 157.425 86.7051 158.23 86.7051 159.332C86.7051 160.094 86.4912 160.724 86.0635 161.222C85.6416 161.714 85.0234 162.033 84.209 162.18V162.268C86.1602 162.602 87.1357 163.627 87.1357 165.344C87.1357 166.492 86.7461 167.389 85.9668 168.033C85.1934 168.678 84.1094 169 82.7148 169H78.2324V156.15ZM79.7266 161.652H82.1875C83.2422 161.652 84.001 161.488 84.4639 161.16C84.9268 160.826 85.1582 160.267 85.1582 159.481C85.1582 158.761 84.9004 158.242 84.3848 157.926C83.8691 157.604 83.0488 157.442 81.9238 157.442H79.7266V161.652ZM79.7266 162.918V167.726H82.4072C83.4443 167.726 84.2236 167.526 84.7451 167.128C85.2725 166.724 85.5361 166.094 85.5361 165.238C85.5361 164.441 85.2666 163.855 84.7275 163.48C84.1943 163.105 83.3799 162.918 82.2842 162.918H79.7266ZM97.999 164.175C97.999 165.745 97.6035 166.973 96.8125 167.857C96.0215 168.736 94.9287 169.176 93.5342 169.176C92.6729 169.176 91.9082 168.974 91.2402 168.569C90.5723 168.165 90.0566 167.585 89.6934 166.829C89.3301 166.073 89.1484 165.188 89.1484 164.175C89.1484 162.604 89.541 161.383 90.3262 160.51C91.1113 159.631 92.2012 159.191 93.5957 159.191C94.9434 159.191 96.0127 159.64 96.8037 160.536C97.6006 161.433 97.999 162.646 97.999 164.175ZM90.6602 164.175C90.6602 165.405 90.9062 166.343 91.3984 166.987C91.8906 167.632 92.6143 167.954 93.5693 167.954C94.5244 167.954 95.248 167.635 95.7402 166.996C96.2383 166.352 96.4873 165.411 96.4873 164.175C96.4873 162.95 96.2383 162.021 95.7402 161.389C95.248 160.75 94.5186 160.431 93.5518 160.431C92.5967 160.431 91.876 160.744 91.3896 161.371C90.9033 161.998 90.6602 162.933 90.6602 164.175ZM102.402 163.366C104.225 163.366 105.136 162.862 105.136 161.854C105.136 160.905 104.397 160.431 102.921 160.431C102.47 160.431 102.06 160.472 101.69 160.554C101.321 160.636 100.838 160.8 100.24 161.046L99.7217 159.859C100.718 159.414 101.805 159.191 102.982 159.191C104.09 159.191 104.963 159.42 105.602 159.877C106.24 160.328 106.56 160.946 106.56 161.731C106.56 162.81 105.959 163.516 104.758 163.85V163.92C105.496 164.137 106.035 164.447 106.375 164.852C106.715 165.25 106.885 165.751 106.885 166.354C106.885 167.245 106.524 167.939 105.804 168.438C105.089 168.93 104.099 169.176 102.833 169.176C101.444 169.176 100.372 168.968 99.6162 168.552V167.216C100.688 167.72 101.772 167.972 102.868 167.972C103.712 167.972 104.348 167.828 104.775 167.541C105.209 167.248 105.426 166.829 105.426 166.284C105.426 165.165 104.515 164.605 102.692 164.605H101.356V163.366H102.402ZM114.268 167.594L114.54 166.776L114.918 165.739L117.528 159.385H119.383V169H118.091V161.046L117.915 161.556L117.405 162.9L114.918 169H113.696L111.209 162.883C110.898 162.098 110.685 161.485 110.567 161.046V169H109.267V159.385H111.051L113.573 165.493C113.825 166.138 114.057 166.838 114.268 167.594ZM130.817 164.175C130.817 165.745 130.422 166.973 129.631 167.857C128.84 168.736 127.747 169.176 126.353 169.176C125.491 169.176 124.727 168.974 124.059 168.569C123.391 168.165 122.875 167.585 122.512 166.829C122.148 166.073 121.967 165.188 121.967 164.175C121.967 162.604 122.359 161.383 123.145 160.51C123.93 159.631 125.02 159.191 126.414 159.191C127.762 159.191 128.831 159.64 129.622 160.536C130.419 161.433 130.817 162.646 130.817 164.175ZM123.479 164.175C123.479 165.405 123.725 166.343 124.217 166.987C124.709 167.632 125.433 167.954 126.388 167.954C127.343 167.954 128.066 167.635 128.559 166.996C129.057 166.352 129.306 165.411 129.306 164.175C129.306 162.95 129.057 162.021 128.559 161.389C128.066 160.75 127.337 160.431 126.37 160.431C125.415 160.431 124.694 160.744 124.208 161.371C123.722 161.998 123.479 162.933 123.479 164.175ZM137.778 159.385H139.123V164.052L143.104 159.385H144.704L140.679 164.052L145.047 169H143.359L139.123 164.122V169H137.778V164.122L133.551 169H131.872L136.231 164.052L132.215 159.385H133.814L137.778 164.052V159.385ZM148.097 159.367V163.401H153.493V159.367H154.952V169H153.493V164.658H148.097V169H146.638V159.367H148.097ZM166.36 164.175C166.36 165.745 165.965 166.973 165.174 167.857C164.383 168.736 163.29 169.176 161.896 169.176C161.034 169.176 160.27 168.974 159.602 168.569C158.934 168.165 158.418 167.585 158.055 166.829C157.691 166.073 157.51 165.188 157.51 164.175C157.51 162.604 157.902 161.383 158.688 160.51C159.473 159.631 160.562 159.191 161.957 159.191C163.305 159.191 164.374 159.64 165.165 160.536C165.962 161.433 166.36 162.646 166.36 164.175ZM159.021 164.175C159.021 165.405 159.268 166.343 159.76 166.987C160.252 167.632 160.976 167.954 161.931 167.954C162.886 167.954 163.609 167.635 164.102 166.996C164.6 166.352 164.849 165.411 164.849 164.175C164.849 162.95 164.6 162.021 164.102 161.389C163.609 160.75 162.88 160.431 161.913 160.431C160.958 160.431 160.237 160.744 159.751 161.371C159.265 161.998 159.021 162.933 159.021 164.175ZM172.776 169.176C171.382 169.176 170.301 168.748 169.533 167.893C168.771 167.031 168.391 165.815 168.391 164.245C168.391 162.634 168.777 161.389 169.551 160.51C170.33 159.631 171.438 159.191 172.873 159.191C173.336 159.191 173.799 159.241 174.262 159.341C174.725 159.44 175.088 159.558 175.352 159.692L174.903 160.932C174.581 160.803 174.229 160.697 173.849 160.615C173.468 160.527 173.131 160.483 172.838 160.483C170.881 160.483 169.902 161.731 169.902 164.228C169.902 165.411 170.14 166.319 170.614 166.952C171.095 167.585 171.804 167.901 172.741 167.901C173.544 167.901 174.367 167.729 175.211 167.383V168.675C174.566 169.009 173.755 169.176 172.776 169.176ZM184 160.615H180.871V169H179.412V160.615H176.318V159.367H184V160.615ZM187.366 163.349H190.337C192.798 163.349 194.028 164.254 194.028 166.064C194.028 167.014 193.706 167.74 193.062 168.244C192.423 168.748 191.485 169 190.249 169H185.907V159.367H187.366V163.349ZM187.366 164.605V167.778H190.179C190.952 167.778 191.544 167.644 191.954 167.374C192.364 167.104 192.569 166.697 192.569 166.152C192.569 165.619 192.379 165.229 191.998 164.983C191.623 164.731 191.002 164.605 190.135 164.605H187.366ZM202.694 169H201.235V159.367H209.321V169H207.845V160.633H202.694V169ZM220.729 164.175C220.729 165.745 220.334 166.973 219.543 167.857C218.752 168.736 217.659 169.176 216.265 169.176C215.403 169.176 214.639 168.974 213.971 168.569C213.303 168.165 212.787 167.585 212.424 166.829C212.061 166.073 211.879 165.188 211.879 164.175C211.879 162.604 212.271 161.383 213.057 160.51C213.842 159.631 214.932 159.191 216.326 159.191C217.674 159.191 218.743 159.64 219.534 160.536C220.331 161.433 220.729 162.646 220.729 164.175ZM213.391 164.175C213.391 165.405 213.637 166.343 214.129 166.987C214.621 167.632 215.345 167.954 216.3 167.954C217.255 167.954 217.979 167.635 218.471 166.996C218.969 166.352 219.218 165.411 219.218 164.175C219.218 162.95 218.969 162.021 218.471 161.389C217.979 160.75 217.249 160.431 216.282 160.431C215.327 160.431 214.606 160.744 214.12 161.371C213.634 161.998 213.391 162.933 213.391 164.175ZM228.912 159.367H230.512L226.354 164.017L230.854 169H229.149L224.755 164.122V169H223.296V159.367H224.755V164.052L228.912 159.367ZM238.571 169L238.281 167.629H238.211C237.73 168.232 237.25 168.643 236.77 168.859C236.295 169.07 235.7 169.176 234.985 169.176C234.03 169.176 233.28 168.93 232.735 168.438C232.196 167.945 231.927 167.245 231.927 166.337C231.927 164.392 233.482 163.372 236.594 163.278L238.229 163.226V162.628C238.229 161.872 238.064 161.315 237.736 160.958C237.414 160.595 236.896 160.413 236.181 160.413C235.378 160.413 234.47 160.659 233.456 161.151L233.008 160.035C233.482 159.777 234.001 159.575 234.563 159.429C235.132 159.282 235.7 159.209 236.269 159.209C237.417 159.209 238.267 159.464 238.817 159.974C239.374 160.483 239.652 161.301 239.652 162.426V169H238.571ZM235.275 167.972C236.184 167.972 236.896 167.723 237.411 167.225C237.933 166.727 238.193 166.029 238.193 165.133V164.263L236.734 164.324C235.574 164.365 234.736 164.547 234.221 164.869C233.711 165.186 233.456 165.681 233.456 166.354C233.456 166.882 233.614 167.283 233.931 167.559C234.253 167.834 234.701 167.972 235.275 167.972ZM244.504 163.366C246.326 163.366 247.237 162.862 247.237 161.854C247.237 160.905 246.499 160.431 245.022 160.431C244.571 160.431 244.161 160.472 243.792 160.554C243.423 160.636 242.939 160.8 242.342 161.046L241.823 159.859C242.819 159.414 243.906 159.191 245.084 159.191C246.191 159.191 247.064 159.42 247.703 159.877C248.342 160.328 248.661 160.946 248.661 161.731C248.661 162.81 248.061 163.516 246.859 163.85V163.92C247.598 164.137 248.137 164.447 248.477 164.852C248.816 165.25 248.986 165.751 248.986 166.354C248.986 167.245 248.626 167.939 247.905 168.438C247.19 168.93 246.2 169.176 244.935 169.176C243.546 169.176 242.474 168.968 241.718 168.552V167.216C242.79 167.72 243.874 167.972 244.97 167.972C245.813 167.972 246.449 167.828 246.877 167.541C247.311 167.248 247.527 166.829 247.527 166.284C247.527 165.165 246.616 164.605 244.794 164.605H243.458V163.366H244.504ZM257.292 169L257.002 167.629H256.932C256.451 168.232 255.971 168.643 255.49 168.859C255.016 169.07 254.421 169.176 253.706 169.176C252.751 169.176 252.001 168.93 251.456 168.438C250.917 167.945 250.647 167.245 250.647 166.337C250.647 164.392 252.203 163.372 255.314 163.278L256.949 163.226V162.628C256.949 161.872 256.785 161.315 256.457 160.958C256.135 160.595 255.616 160.413 254.901 160.413C254.099 160.413 253.19 160.659 252.177 161.151L251.729 160.035C252.203 159.777 252.722 159.575 253.284 159.429C253.853 159.282 254.421 159.209 254.989 159.209C256.138 159.209 256.987 159.464 257.538 159.974C258.095 160.483 258.373 161.301 258.373 162.426V169H257.292ZM253.996 167.972C254.904 167.972 255.616 167.723 256.132 167.225C256.653 166.727 256.914 166.029 256.914 165.133V164.263L255.455 164.324C254.295 164.365 253.457 164.547 252.941 164.869C252.432 165.186 252.177 165.681 252.177 166.354C252.177 166.882 252.335 167.283 252.651 167.559C252.974 167.834 253.422 167.972 253.996 167.972ZM274.378 164.175C274.378 165.745 273.982 166.973 273.191 167.857C272.4 168.736 271.308 169.176 269.913 169.176C269.052 169.176 268.287 168.974 267.619 168.569C266.951 168.165 266.436 167.585 266.072 166.829C265.709 166.073 265.527 165.188 265.527 164.175C265.527 162.604 265.92 161.383 266.705 160.51C267.49 159.631 268.58 159.191 269.975 159.191C271.322 159.191 272.392 159.64 273.183 160.536C273.979 161.433 274.378 162.646 274.378 164.175ZM267.039 164.175C267.039 165.405 267.285 166.343 267.777 166.987C268.27 167.632 268.993 167.954 269.948 167.954C270.903 167.954 271.627 167.635 272.119 166.996C272.617 166.352 272.866 165.411 272.866 164.175C272.866 162.95 272.617 162.021 272.119 161.389C271.627 160.75 270.897 160.431 269.931 160.431C268.976 160.431 268.255 160.744 267.769 161.371C267.282 161.998 267.039 162.933 267.039 164.175ZM276.443 163.226C276.443 161.116 276.754 159.473 277.375 158.295C277.996 157.111 278.98 156.373 280.328 156.08C282.004 155.723 283.48 155.433 284.758 155.21L285.03 156.493C282.997 156.833 281.544 157.103 280.671 157.302C279.821 157.495 279.183 157.952 278.755 158.673C278.333 159.394 278.102 160.375 278.061 161.617H278.166C278.529 161.125 278.998 160.738 279.572 160.457C280.146 160.176 280.747 160.035 281.374 160.035C282.558 160.035 283.48 160.419 284.143 161.187C284.805 161.954 285.136 163.018 285.136 164.377C285.136 165.883 284.752 167.061 283.984 167.91C283.217 168.754 282.147 169.176 280.776 169.176C279.423 169.176 278.362 168.657 277.595 167.62C276.827 166.583 276.443 165.118 276.443 163.226ZM280.908 167.954C282.695 167.954 283.589 166.814 283.589 164.535C283.589 162.361 282.777 161.274 281.154 161.274C280.709 161.274 280.278 161.368 279.862 161.556C279.452 161.737 279.074 161.98 278.729 162.285C278.389 162.59 278.125 162.903 277.938 163.226C277.938 164.767 278.181 165.941 278.667 166.75C279.153 167.553 279.9 167.954 280.908 167.954ZM291.033 163.349H293.784C295.097 163.349 296.066 163.574 296.693 164.025C297.326 164.477 297.643 165.156 297.643 166.064C297.643 167.037 297.314 167.77 296.658 168.262C296.008 168.754 295.038 169 293.749 169H289.574V160.615H286.498V159.367H291.033V163.349ZM296.201 166.152C296.201 165.607 296.02 165.215 295.656 164.975C295.293 164.729 294.651 164.605 293.731 164.605H291.033V167.778H293.784C295.396 167.778 296.201 167.236 296.201 166.152ZM304.27 169.176C302.846 169.176 301.721 168.742 300.895 167.875C300.074 167.008 299.664 165.804 299.664 164.263C299.664 162.71 300.045 161.477 300.807 160.562C301.574 159.648 302.603 159.191 303.892 159.191C305.099 159.191 306.054 159.59 306.757 160.387C307.46 161.178 307.812 162.224 307.812 163.524V164.447H301.176C301.205 165.578 301.489 166.437 302.028 167.022C302.573 167.608 303.338 167.901 304.322 167.901C305.359 167.901 306.385 167.685 307.398 167.251V168.552C306.883 168.774 306.394 168.933 305.931 169.026C305.474 169.126 304.92 169.176 304.27 169.176ZM303.874 160.413C303.101 160.413 302.482 160.665 302.02 161.169C301.562 161.673 301.293 162.37 301.211 163.261H306.247C306.247 162.341 306.042 161.638 305.632 161.151C305.222 160.659 304.636 160.413 303.874 160.413ZM315.924 159.367H317.523L313.366 164.017L317.866 169H316.161L311.767 164.122V169H310.308V159.367H311.767V164.052L315.924 159.367ZM326.154 160.615H323.025V169H321.566V160.615H318.473V159.367H326.154V160.615ZM333.985 169L333.695 167.629H333.625C333.145 168.232 332.664 168.643 332.184 168.859C331.709 169.07 331.114 169.176 330.399 169.176C329.444 169.176 328.694 168.93 328.149 168.438C327.61 167.945 327.341 167.245 327.341 166.337C327.341 164.392 328.896 163.372 332.008 163.278L333.643 163.226V162.628C333.643 161.872 333.479 161.315 333.15 160.958C332.828 160.595 332.31 160.413 331.595 160.413C330.792 160.413 329.884 160.659 328.87 161.151L328.422 160.035C328.896 159.777 329.415 159.575 329.978 159.429C330.546 159.282 331.114 159.209 331.683 159.209C332.831 159.209 333.681 159.464 334.231 159.974C334.788 160.483 335.066 161.301 335.066 162.426V169H333.985ZM330.689 167.972C331.598 167.972 332.31 167.723 332.825 167.225C333.347 166.727 333.607 166.029 333.607 165.133V164.263L332.148 164.324C330.988 164.365 330.15 164.547 329.635 164.869C329.125 165.186 328.87 165.681 328.87 166.354C328.87 166.882 329.028 167.283 329.345 167.559C329.667 167.834 330.115 167.972 330.689 167.972ZM154.961 186.784C154.961 187.411 154.779 187.889 154.416 188.217C154.059 188.539 153.555 188.756 152.904 188.867V188.946C153.725 189.058 154.322 189.298 154.697 189.667C155.078 190.036 155.269 190.546 155.269 191.196C155.269 192.093 154.938 192.784 154.275 193.271C153.619 193.757 152.658 194 151.393 194H147.147V184.367H151.375C153.766 184.367 154.961 185.173 154.961 186.784ZM153.81 191.1C153.81 190.578 153.61 190.2 153.212 189.966C152.819 189.726 152.166 189.605 151.252 189.605H148.606V192.778H151.287C152.969 192.778 153.81 192.219 153.81 191.1ZM153.537 186.925C153.537 186.456 153.355 186.125 152.992 185.932C152.635 185.732 152.09 185.633 151.357 185.633H148.606V188.349H151.076C151.979 188.349 152.614 188.237 152.983 188.015C153.353 187.792 153.537 187.429 153.537 186.925ZM170.438 197.331H169.023V194H162.291V197.331H160.885V192.743H161.641C162.426 191.677 163.041 190.426 163.486 188.99C163.932 187.555 164.163 186.014 164.181 184.367H169.059V192.743H170.438V197.331ZM167.652 192.743V185.519H165.49C165.414 186.819 165.162 188.138 164.734 189.474C164.312 190.804 163.785 191.894 163.152 192.743H167.652ZM176.441 194.176C175.018 194.176 173.893 193.742 173.066 192.875C172.246 192.008 171.836 190.804 171.836 189.263C171.836 187.71 172.217 186.477 172.979 185.562C173.746 184.648 174.774 184.191 176.063 184.191C177.271 184.191 178.226 184.59 178.929 185.387C179.632 186.178 179.983 187.224 179.983 188.524V189.447H173.348C173.377 190.578 173.661 191.437 174.2 192.022C174.745 192.608 175.51 192.901 176.494 192.901C177.531 192.901 178.557 192.685 179.57 192.251V193.552C179.055 193.774 178.565 193.933 178.103 194.026C177.646 194.126 177.092 194.176 176.441 194.176ZM176.046 185.413C175.272 185.413 174.654 185.665 174.191 186.169C173.734 186.673 173.465 187.37 173.383 188.261H178.419C178.419 187.341 178.214 186.638 177.804 186.151C177.394 185.659 176.808 185.413 176.046 185.413ZM183.938 184.367V188.401H189.335V184.367H190.794V194H189.335V189.658H183.938V194H182.479V184.367H183.938ZM195.347 188.349H198.317C200.778 188.349 202.009 189.254 202.009 191.064C202.009 192.014 201.687 192.74 201.042 193.244C200.403 193.748 199.466 194 198.229 194H193.888V184.367H195.347V188.349ZM195.347 189.605V192.778H198.159C198.933 192.778 199.524 192.644 199.935 192.374C200.345 192.104 200.55 191.697 200.55 191.152C200.55 190.619 200.359 190.229 199.979 189.983C199.604 189.731 198.982 189.605 198.115 189.605H195.347ZM211.053 188.366C212.875 188.366 213.786 187.862 213.786 186.854C213.786 185.905 213.048 185.431 211.571 185.431C211.12 185.431 210.71 185.472 210.341 185.554C209.972 185.636 209.488 185.8 208.891 186.046L208.372 184.859C209.368 184.414 210.455 184.191 211.633 184.191C212.74 184.191 213.613 184.42 214.252 184.877C214.891 185.328 215.21 185.946 215.21 186.731C215.21 187.81 214.609 188.516 213.408 188.85V188.92C214.146 189.137 214.686 189.447 215.025 189.852C215.365 190.25 215.535 190.751 215.535 191.354C215.535 192.245 215.175 192.939 214.454 193.438C213.739 193.93 212.749 194.176 211.483 194.176C210.095 194.176 209.022 193.968 208.267 193.552V192.216C209.339 192.72 210.423 192.972 211.519 192.972C212.362 192.972 212.998 192.828 213.426 192.541C213.859 192.248 214.076 191.829 214.076 191.284C214.076 190.165 213.165 189.605 211.343 189.605H210.007V188.366H211.053ZM223.841 194L223.551 192.629H223.48C223 193.232 222.52 193.643 222.039 193.859C221.564 194.07 220.97 194.176 220.255 194.176C219.3 194.176 218.55 193.93 218.005 193.438C217.466 192.945 217.196 192.245 217.196 191.337C217.196 189.392 218.752 188.372 221.863 188.278L223.498 188.226V187.628C223.498 186.872 223.334 186.315 223.006 185.958C222.684 185.595 222.165 185.413 221.45 185.413C220.647 185.413 219.739 185.659 218.726 186.151L218.277 185.035C218.752 184.777 219.271 184.575 219.833 184.429C220.401 184.282 220.97 184.209 221.538 184.209C222.687 184.209 223.536 184.464 224.087 184.974C224.644 185.483 224.922 186.301 224.922 187.426V194H223.841ZM220.545 192.972C221.453 192.972 222.165 192.723 222.681 192.225C223.202 191.727 223.463 191.029 223.463 190.133V189.263L222.004 189.324C220.844 189.365 220.006 189.547 219.49 189.869C218.98 190.186 218.726 190.681 218.726 191.354C218.726 191.882 218.884 192.283 219.2 192.559C219.522 192.834 219.971 192.972 220.545 192.972ZM228.42 194H226.715L229.483 189.931C228.739 189.767 228.168 189.45 227.77 188.981C227.377 188.507 227.181 187.912 227.181 187.197C227.181 186.318 227.477 185.627 228.068 185.123C228.66 184.619 229.486 184.367 230.547 184.367H234.836V194H233.377V190.15H230.942L228.42 194ZM228.604 187.215C228.604 188.328 229.413 188.885 231.03 188.885H233.377V185.633H230.731C229.313 185.633 228.604 186.16 228.604 187.215ZM245.752 186.784C245.752 187.411 245.57 187.889 245.207 188.217C244.85 188.539 244.346 188.756 243.695 188.867V188.946C244.516 189.058 245.113 189.298 245.488 189.667C245.869 190.036 246.06 190.546 246.06 191.196C246.06 192.093 245.729 192.784 245.066 193.271C244.41 193.757 243.449 194 242.184 194H237.938V184.367H242.166C244.557 184.367 245.752 185.173 245.752 186.784ZM244.601 191.1C244.601 190.578 244.401 190.2 244.003 189.966C243.61 189.726 242.957 189.605 242.043 189.605H239.397V192.778H242.078C243.76 192.778 244.601 192.219 244.601 191.1ZM244.328 186.925C244.328 186.456 244.146 186.125 243.783 185.932C243.426 185.732 242.881 185.633 242.148 185.633H239.397V188.349H241.867C242.77 188.349 243.405 188.237 243.774 188.015C244.144 187.792 244.328 187.429 244.328 186.925ZM253.803 184.367H255.402L251.245 189.017L255.745 194H254.04L249.646 189.122V194H248.187V184.367H249.646V189.052L253.803 184.367ZM258.909 184.367V190.476L258.848 192.075L258.821 192.576L264.033 184.367H265.853V194H264.49V188.111L264.517 186.951L264.561 185.809L259.357 194H257.538V184.367H258.909Z" fill="#0D1B44"/>
<rect x="0.5" y="0.5" width="412" height="228" stroke="#0D1B44"/>
</svg>
