<svg width="81" height="80" viewBox="0 0 81 80" fill="none" xmlns="http://www.w3.org/2000/svg">
<path d="M7.1665 10H27.1665C30.7027 10 34.0941 11.4048 36.5946 13.9052C39.0951 16.4057 40.4998 19.7971 40.4998 23.3333V70C40.4998 67.3478 39.4463 64.8043 37.5709 62.9289C35.6955 61.0536 33.152 60 30.4998 60H7.1665V10Z" stroke="#0D1B44" stroke-width="1.83333" stroke-linecap="round" stroke-linejoin="round"/>
<path d="M73.8333 10H53.8333C50.2971 10 46.9057 11.4048 44.4052 13.9052C41.9048 16.4057 40.5 19.7971 40.5 23.3333V70C40.5 67.3478 41.5536 64.8043 43.4289 62.9289C45.3043 61.0536 47.8478 60 50.5 60H73.8333V10Z" stroke="#0D1B44" stroke-width="1.83333" stroke-linecap="round" stroke-linejoin="round"/>
</svg>
