<svg width="80" height="80" viewBox="0 0 80 80" fill="none" xmlns="http://www.w3.org/2000/svg">
<path d="M66.6665 23.333H13.3332C9.65127 23.333 6.6665 26.3178 6.6665 29.9997V63.333C6.6665 67.0149 9.65127 69.9997 13.3332 69.9997H66.6665C70.3484 69.9997 73.3332 67.0149 73.3332 63.333V29.9997C73.3332 26.3178 70.3484 23.333 66.6665 23.333Z" stroke="#0D1B44" stroke-width="1.83" stroke-linecap="round" stroke-linejoin="round"/>
<path d="M53.3332 70V16.6667C53.3332 14.8986 52.6308 13.2029 51.3805 11.9526C50.1303 10.7024 48.4346 10 46.6665 10H33.3332C31.5651 10 29.8694 10.7024 28.6191 11.9526C27.3689 13.2029 26.6665 14.8986 26.6665 16.6667V70" stroke="#0D1B44" stroke-width="1.83" stroke-linecap="round" stroke-linejoin="round"/>
</svg>
