<svg width="24" height="24" viewBox="0 0 24 24" fill="none" xmlns="http://www.w3.org/2000/svg">
<path d="M9.00006 16.1998L5.50006 12.6998C5.40853 12.6071 5.29953 12.5336 5.17937 12.4834C5.05921 12.4332 4.93028 12.4073 4.80006 12.4073C4.66983 12.4073 4.5409 12.4332 4.42074 12.4834C4.30058 12.5336 4.19158 12.6071 4.10006 12.6998C4.00742 12.7913 3.93387 12.9003 3.88367 13.0204C3.83347 13.1406 3.80762 13.2695 3.80762 13.3998C3.80762 13.53 3.83347 13.6589 3.88367 13.7791C3.93387 13.8992 4.00742 14.0082 4.10006 14.0998L8.29006 18.2898C8.68006 18.6798 9.31006 18.6798 9.70006 18.2898L20.3001 7.69976C20.3927 7.60824 20.4662 7.49924 20.5164 7.37908C20.5666 7.25892 20.5925 7.12999 20.5925 6.99976C20.5925 6.86954 20.5666 6.74061 20.5164 6.62045C20.4662 6.50029 20.3927 6.39129 20.3001 6.29976C20.2085 6.20712 20.0995 6.13357 19.9794 6.08337C19.8592 6.03317 19.7303 6.00732 19.6001 6.00732C19.4698 6.00732 19.3409 6.03317 19.2207 6.08337C19.1006 6.13357 18.9916 6.20712 18.9001 6.29976L9.00006 16.1998Z" fill="#0D1B44"/>
</svg>
