<svg width="24" height="24" viewBox="0 0 24 24" fill="none" xmlns="http://www.w3.org/2000/svg">
<path opacity="0.8" d="M3.76464 0.842602L11.9993 9.07727L20.1913 0.885268C20.3723 0.692665 20.5902 0.53859 20.8322 0.432281C21.0741 0.325972 21.3351 0.269619 21.5993 0.266602C22.1651 0.266602 22.7077 0.491363 23.1078 0.89144C23.5079 1.29152 23.7326 1.83414 23.7326 2.39994C23.7376 2.66149 23.6891 2.92129 23.59 3.16342C23.491 3.40554 23.3435 3.62486 23.1566 3.80794L14.858 11.9999L23.1566 20.2986C23.5082 20.6426 23.7144 21.1084 23.7326 21.5999C23.7326 22.1657 23.5079 22.7084 23.1078 23.1084C22.7077 23.5085 22.1651 23.7333 21.5993 23.7333C21.3274 23.7445 21.0562 23.6992 20.8028 23.6C20.5493 23.5009 20.3193 23.3501 20.1273 23.1573L11.9993 14.9226L3.78597 23.1359C3.60572 23.3221 3.39038 23.4708 3.15238 23.5733C2.91438 23.6758 2.65843 23.7302 2.39931 23.7333C1.83351 23.7333 1.29089 23.5085 0.890811 23.1084C0.490733 22.7084 0.265972 22.1657 0.265972 21.5999C0.260998 21.3384 0.309525 21.0786 0.408575 20.8365C0.507624 20.5943 0.655107 20.375 0.841972 20.1919L9.14064 11.9999L0.841972 3.70127C0.490367 3.35729 0.28419 2.89148 0.265972 2.39994C0.265972 1.83414 0.490733 1.29152 0.890811 0.89144C1.29089 0.491363 1.83351 0.266602 2.39931 0.266602C2.91131 0.273002 3.40197 0.479935 3.76464 0.842602Z" fill="#0D1B44"/>
</svg>
