<svg width="20" height="20" viewBox="0 0 20 21" fill="none" xmlns="http://www.w3.org/2000/svg">
<g clip-path="url(#clip0_1763_11932)">
<path d="M18.8167 5.12219L15.5556 1.84441C15.3401 1.63001 15.0485 1.50964 14.7445 1.50964C14.4405 1.50964 14.1489 1.63001 13.9334 1.84441L2.37225 13.3889L1.3167 17.9444C1.28029 18.1109 1.28153 18.2835 1.32035 18.4495C1.35917 18.6155 1.43458 18.7707 1.54107 18.9038C1.64756 19.0369 1.78243 19.1446 1.93585 19.2189C2.08927 19.2932 2.25735 19.3323 2.42781 19.3333C2.50724 19.3413 2.58727 19.3413 2.6667 19.3333L7.27225 18.2777L18.8167 6.74441C19.0311 6.52892 19.1515 6.23729 19.1515 5.9333C19.1515 5.62931 19.0311 5.33769 18.8167 5.12219ZM6.7167 17.2777L2.40003 18.1833L3.38337 13.95L12.0334 5.3333L15.3667 8.66664L6.7167 17.2777ZM16.1111 7.86108L12.7778 4.52775L14.7111 2.60553L17.9889 5.93886L16.1111 7.86108Z" fill="#0D1B44"/>
</g>
<defs>
<clipPath id="clip0_1763_11932">
<rect width="20" height="20" fill="white" transform="translate(0 0.5)"/>
</clipPath>
</defs>
</svg>
