<svg width="22" height="22" viewBox="0 0 22 22" fill="none" xmlns="http://www.w3.org/2000/svg">
<path d="M11 2.40625C9.30032 2.40625 7.63881 2.91026 6.22557 3.85456C4.81234 4.79885 3.71085 6.14101 3.06041 7.71131C2.40997 9.28162 2.23979 11.0095 2.57138 12.6766C2.90297 14.3436 3.72145 15.8748 4.92331 17.0767C6.12516 18.2786 7.65642 19.097 9.32345 19.4286C10.9905 19.7602 12.7184 19.59 14.2887 18.9396C15.859 18.2891 17.2012 17.1877 18.1454 15.7744C19.0897 14.3612 19.5938 12.6997 19.5938 11C19.5892 8.72219 18.6823 6.53898 17.0717 4.92832C15.461 3.31766 13.2778 2.41079 11 2.40625ZM11 18.9062C9.4363 18.9062 7.9077 18.4426 6.60753 17.5738C5.30735 16.7051 4.29399 15.4703 3.69558 14.0256C3.09718 12.5809 2.94061 10.9912 3.24567 9.45757C3.55073 7.9239 4.30373 6.51515 5.40944 5.40944C6.51515 4.30373 7.92391 3.55073 9.45757 3.24567C10.9912 2.9406 12.5809 3.09717 14.0256 3.69558C15.4703 4.29398 16.7051 5.30735 17.5738 6.60752C18.4426 7.9077 18.9063 9.43629 18.9063 11C18.904 13.0962 18.0703 15.1058 16.5881 16.588C15.1058 18.0703 13.0962 18.904 11 18.9062ZM11.6875 15.4688C11.6875 15.6047 11.6472 15.7376 11.5716 15.8507C11.4961 15.9638 11.3887 16.0519 11.2631 16.1039C11.1375 16.156 10.9992 16.1696 10.8659 16.143C10.7325 16.1165 10.61 16.051 10.5139 15.9549C10.4177 15.8587 10.3522 15.7362 10.3257 15.6029C10.2992 15.4695 10.3128 15.3313 10.3648 15.2057C10.4169 15.08 10.505 14.9727 10.618 14.8971C10.7311 14.8216 10.864 14.7812 11 14.7812C11.1823 14.7812 11.3572 14.8537 11.4861 14.9826C11.6151 15.1115 11.6875 15.2864 11.6875 15.4688ZM13.75 9.28125C13.7492 9.9513 13.5046 10.5982 13.0618 11.1011C12.619 11.6039 12.0083 11.9285 11.3438 12.0141V12.375C11.3438 12.4662 11.3075 12.5536 11.2431 12.6181C11.1786 12.6825 11.0912 12.7188 11 12.7188C10.9088 12.7188 10.8214 12.6825 10.7569 12.6181C10.6925 12.5536 10.6563 12.4662 10.6563 12.375V11.6875C10.6563 11.5963 10.6925 11.5089 10.7569 11.4444C10.8214 11.38 10.9088 11.3438 11 11.3438C11.4079 11.3438 11.8067 11.2228 12.1459 10.9962C12.485 10.7695 12.7494 10.4474 12.9055 10.0705C13.0616 9.69366 13.1025 9.27896 13.0229 8.87888C12.9433 8.47879 12.7469 8.11129 12.4584 7.82284C12.17 7.5344 11.8025 7.33796 11.4024 7.25838C11.0023 7.1788 10.5876 7.21964 10.2107 7.37575C9.83385 7.53185 9.51173 7.79621 9.2851 8.13539C9.05847 8.47456 8.9375 8.87333 8.9375 9.28125C8.9375 9.37242 8.90129 9.45985 8.83682 9.52432C8.77236 9.58878 8.68492 9.625 8.59375 9.625C8.50259 9.625 8.41515 9.58878 8.35069 9.52432C8.28622 9.45985 8.25 9.37242 8.25 9.28125C8.25 8.5519 8.53974 7.85243 9.05546 7.33671C9.57119 6.82098 10.2707 6.53125 11 6.53125C11.7293 6.53125 12.4288 6.82098 12.9445 7.33671C13.4603 7.85243 13.75 8.5519 13.75 9.28125Z" fill="#0D1B44"/>
</svg>
