<svg width="158" height="15" viewBox="0 0 158 15" fill="none" xmlns="http://www.w3.org/2000/svg">
<g clip-path="url(#clip0_1993_455)">
<path d="M0 13.9385L6.1528 2.07538H7.55641L13.7092 13.9385H12.2095L6.55658 2.80412H7.13341L1.48052 13.9385H0ZM2.42267 10.7694L2.84567 9.75254H10.6713L11.0943 10.7694H2.42267Z" fill="#A7B7BC"/>
<path d="M26.1331 2.07538H27.5367V13.9385H26.1331V2.07538ZM17.7114 13.9385H16.2886V2.07538H17.7114V13.9385ZM26.2677 8.46454H17.5576V7.36296H26.2677V8.46454Z" fill="#A7B7BC"/>
<path d="M34.7524 13.9385V2.82106L35.137 3.16001H30.0225V2.07538H40.886V3.16001H35.7907L36.156 2.82106V13.9385H34.7524Z" fill="#A7B7BC"/>
<path d="M40.7271 13.9385L46.8799 2.07538H48.2835L54.4363 13.9385H52.9365L47.2836 2.80412H47.8605L42.2076 13.9385H40.7271ZM43.1497 10.7694L43.5727 9.75254H51.3983L51.8213 10.7694H43.1497Z" fill="#A7B7BC"/>
<path d="M56.0348 14.0402C55.8553 14.0402 55.6822 14.0289 55.5156 14.0063C55.349 13.9951 55.1631 13.9668 54.958 13.9216L55.0734 12.8031C55.2913 12.8482 55.5028 12.8709 55.7079 12.8709C56.2847 12.8709 56.7462 12.6732 57.0923 12.2777C57.4511 11.871 57.7203 11.2496 57.8998 10.4135C58.0793 9.56612 58.1947 8.48148 58.2459 7.15959L58.4382 2.07538H67.5713V13.9385H66.1677V2.82106L66.533 3.16001H59.3419L59.688 2.80412L59.5149 7.12569C59.4637 8.31201 59.3675 9.34013 59.2265 10.2101C59.0855 11.0688 58.8804 11.7862 58.6112 12.3624C58.3421 12.9274 57.996 13.3511 57.573 13.6335C57.1499 13.9046 56.6372 14.0402 56.0348 14.0402Z" fill="#A7B7BC"/>
<path d="M72.1118 13.9385V2.07538H73.5154V11.9049L82.1294 2.07538H83.4176V13.9385H82.014V4.12601L73.4001 13.9385H72.1118Z" fill="#A7B7BC"/>
<path d="M96.093 13.9385V10.0067L96.4776 10.3457H92.0745C90.9977 10.3457 90.0748 10.1819 89.3057 9.85422C88.5492 9.52655 87.9656 9.06337 87.556 8.46454C87.1581 7.85443 86.96 7.12569 86.96 6.27833C86.96 5.37446 87.1773 4.61183 87.6137 3.99043C88.0492 3.35773 88.6645 2.8832 89.4595 2.56685C90.2671 2.2392 91.2026 2.07538 92.2668 2.07538H97.4966V13.9385H96.093ZM86.96 13.9385L90.2671 9.76948H91.7284L88.4789 13.9385H86.96ZM96.093 9.65085V2.80412L96.4776 3.16001H92.3244C91.068 3.16001 90.094 3.42552 89.4019 3.95654C88.7222 4.47625 88.3828 5.23888 88.3828 6.24443C88.3828 7.21608 88.703 7.96739 89.3442 8.49843C89.9845 9.01813 90.9334 9.27801 92.1898 9.27801H96.4776L96.093 9.65085Z" fill="#A7B7BC"/>
<path d="M133.106 14.0402C132.094 14.0402 131.151 13.8934 130.28 13.5996C129.421 13.2945 128.671 12.8709 128.03 12.3285C127.402 11.7749 126.908 11.1365 126.549 10.4135C126.203 9.67907 126.03 8.87695 126.03 8.00696C126.03 7.13699 126.203 6.34046 126.549 5.61738C126.908 4.88299 127.402 4.24464 128.03 3.70233C128.671 3.14871 129.421 2.72503 130.28 2.43127C131.138 2.12622 132.08 1.97369 133.106 1.97369C134.118 1.97369 135.055 2.12622 135.913 2.43127C136.772 2.72503 137.516 3.14306 138.144 3.68538C138.785 4.22769 139.278 4.86604 139.624 5.60043C139.983 6.33482 140.162 7.13699 140.162 8.00696C140.162 8.87695 139.983 9.67907 139.624 10.4135C139.278 11.1479 138.785 11.7862 138.144 12.3285C137.516 12.8709 136.772 13.2945 135.913 13.5996C135.055 13.8934 134.118 14.0402 133.106 14.0402ZM133.106 12.9217C133.914 12.9217 134.657 12.8031 135.336 12.5658C136.029 12.3173 136.625 11.9726 137.125 11.532C137.637 11.0801 138.035 10.5603 138.317 9.97285C138.598 9.37402 138.74 8.71875 138.74 8.00696C138.74 7.29517 138.598 6.64552 138.317 6.05801C138.035 5.4592 137.637 4.93948 137.125 4.49885C136.625 4.04692 136.029 3.70233 135.336 3.46506C134.657 3.2165 133.914 3.09222 133.106 3.09222C132.298 3.09222 131.549 3.2165 130.856 3.46506C130.164 3.70233 129.561 4.04692 129.049 4.49885C128.549 4.93948 128.152 5.4592 127.857 6.05801C127.575 6.64552 127.434 7.29517 127.434 8.00696C127.434 8.70747 127.575 9.35707 127.857 9.9559C128.152 10.5547 128.549 11.0801 129.049 11.532C129.561 11.9726 130.164 12.3173 130.856 12.5658C131.549 12.8031 132.298 12.9217 133.106 12.9217Z" fill="#A7B7BC"/>
<path d="M143.558 13.9385V2.07538H144.73L150.883 11.3286H150.268L156.363 2.07538H157.536V13.9385H156.171V3.95654H156.498L150.883 12.4302H150.21L144.557 3.95654H144.923V13.9385H143.558Z" fill="#A7B7BC"/>
<path fill-rule="evenodd" clip-rule="evenodd" d="M124.123 5.42709L115.131 1.13971L105.784 5.42135L106.554 6.72899L115.115 2.80772L123.327 6.72326L124.123 5.42709ZM108.662 6.8416H106.99V13.9067H123.022V7.16338H121.35V12.433H108.662V6.8416Z" fill="#DD9B5C"/>
</g>
<defs>
<clipPath id="clip0_1993_455">
<rect width="158" height="14" fill="white" transform="translate(0 0.5)"/>
</clipPath>
</defs>
</svg>
