<svg width="189" height="19" viewBox="0 0 189 19" fill="none" xmlns="http://www.w3.org/2000/svg">
    <path d="M0 18.238L7.36 2.138H9.039L16.399 18.238H14.605L7.843 3.127H8.533L1.771 18.238H0ZM2.898 13.937L3.404 12.557H12.765L13.271 13.937H2.898Z" fill="#A7B7BC"/>
    <path d="M31.2602 2.138H32.9392V18.238H31.2602V2.138ZM21.1862 18.238H19.4842V2.138H21.1862V18.238ZM31.4212 10.809H21.0022V9.314H31.4212V10.809Z" fill="#A7B7BC"/>
    <path d="M41.5709 18.238V3.15L42.0309 3.61H35.9129V2.138H48.9079V3.61H42.8129L43.2499 3.15V18.238H41.5709Z" fill="#A7B7BC"/>
    <path d="M48.7178 18.238L56.0778 2.138H57.7568L65.1168 18.238H63.3228L56.5608 3.127H57.2508L50.4888 18.238H48.7178ZM51.6158 13.937L52.1218 12.557H61.4828L61.9888 13.937H51.6158Z" fill="#A7B7BC"/>
    <path d="M67.029 18.376C66.8143 18.376 66.6073 18.3607 66.408 18.33C66.2087 18.3147 65.9863 18.2763 65.741 18.215L65.879 16.697C66.1397 16.7583 66.3927 16.789 66.638 16.789C67.328 16.789 67.88 16.5207 68.294 15.984C68.7233 15.432 69.0453 14.5887 69.26 13.454C69.4747 12.304 69.6127 10.832 69.674 9.038L69.904 2.138H80.829V18.238H79.15V3.15L79.587 3.61H70.985L71.399 3.127L71.192 8.992C71.1307 10.602 71.0157 11.9973 70.847 13.178C70.6783 14.3433 70.433 15.317 70.111 16.099C69.789 16.8657 69.375 17.4407 68.869 17.824C68.363 18.192 67.7497 18.376 67.029 18.376Z" fill="#A7B7BC"/>
    <path d="M86.2606 18.238V2.138H87.9396V15.478L98.2436 2.138H99.7846V18.238H98.1056V4.921L87.8016 18.238H86.2606Z" fill="#A7B7BC"/>
    <path d="M114.947 18.238V12.902L115.407 13.362H110.14C108.852 13.362 107.748 13.1397 106.828 12.695C105.923 12.2503 105.225 11.6217 104.735 10.809C104.259 9.981 104.022 8.992 104.022 7.842C104.022 6.61533 104.282 5.58033 104.804 4.737C105.325 3.87833 106.061 3.23433 107.012 2.805C107.978 2.36033 109.097 2.138 110.37 2.138H116.626V18.238H114.947ZM104.022 18.238L107.978 12.58H109.726L105.839 18.238H104.022ZM114.947 12.419V3.127L115.407 3.61H110.439C108.936 3.61 107.771 3.97033 106.943 4.691C106.13 5.39633 105.724 6.43133 105.724 7.796C105.724 9.11467 106.107 10.1343 106.874 10.855C107.64 11.5603 108.775 11.913 110.278 11.913H115.407L114.947 12.419Z" fill="#A7B7BC"/>
    <path d="M159.222 18.376C158.011 18.376 156.884 18.1767 155.841 17.778C154.814 17.364 153.917 16.789 153.15 16.053C152.399 15.3017 151.808 14.4353 151.379 13.454C150.965 12.4573 150.758 11.3687 150.758 10.188C150.758 9.00733 150.965 7.92633 151.379 6.945C151.808 5.94833 152.399 5.082 153.15 4.346C153.917 3.59467 154.814 3.01967 155.841 2.621C156.868 2.207 157.995 2 159.222 2C160.433 2 161.553 2.207 162.58 2.621C163.607 3.01967 164.497 3.587 165.248 4.323C166.015 5.059 166.605 5.92533 167.019 6.922C167.448 7.91867 167.663 9.00733 167.663 10.188C167.663 11.3687 167.448 12.4573 167.019 13.454C166.605 14.4507 166.015 15.317 165.248 16.053C164.497 16.789 163.607 17.364 162.58 17.778C161.553 18.1767 160.433 18.376 159.222 18.376ZM159.222 16.858C160.188 16.858 161.077 16.697 161.89 16.375C162.718 16.0377 163.431 15.57 164.029 14.972C164.642 14.3587 165.118 13.6533 165.455 12.856C165.792 12.0433 165.961 11.154 165.961 10.188C165.961 9.222 165.792 8.34033 165.455 7.543C165.118 6.73033 164.642 6.025 164.029 5.427C163.431 4.81367 162.718 4.346 161.89 4.024C161.077 3.68667 160.188 3.518 159.222 3.518C158.256 3.518 157.359 3.68667 156.531 4.024C155.703 4.346 154.982 4.81367 154.369 5.427C153.771 6.025 153.296 6.73033 152.943 7.543C152.606 8.34033 152.437 9.222 152.437 10.188C152.437 11.1387 152.606 12.0203 152.943 12.833C153.296 13.6457 153.771 14.3587 154.369 14.972C154.982 15.57 155.703 16.0377 156.531 16.375C157.359 16.697 158.256 16.858 159.222 16.858Z" fill="#A7B7BC"/>
    <path d="M171.724 18.238V2.138H173.127L180.487 14.696H179.751L187.042 2.138H188.445V18.238H186.812V4.691H187.203L180.487 16.191H179.682L172.92 4.691H173.357V18.238H171.724Z" fill="#A7B7BC"/>
    <path d="M128.982 8.60642V17.1948H146.159V9.04312" stroke="#DD9B5C" stroke-width="2"/>
    <path d="M127 7.56627L137.711 2L148 7.56627" stroke="#DD9B5C" stroke-width="2"/>
</svg>