<svg width="32" height="32" viewBox="0 0 32 32" fill="none" xmlns="http://www.w3.org/2000/svg">
<path opacity="0.8" d="M7.76464 4.8426L15.9993 13.0773L24.1913 4.88527C24.3723 4.69267 24.5902 4.53859 24.8322 4.43228C25.0741 4.32597 25.3351 4.26962 25.5993 4.2666C26.1651 4.2666 26.7077 4.49136 27.1078 4.89144C27.5079 5.29152 27.7326 5.83414 27.7326 6.39994C27.7376 6.66149 27.6891 6.92129 27.59 7.16342C27.491 7.40554 27.3435 7.62486 27.1566 7.80794L18.858 15.9999L27.1566 24.2986C27.5082 24.6426 27.7144 25.1084 27.7326 25.5999C27.7326 26.1657 27.5079 26.7084 27.1078 27.1084C26.7077 27.5085 26.1651 27.7333 25.5993 27.7333C25.3274 27.7445 25.0562 27.6992 24.8028 27.6C24.5493 27.5009 24.3193 27.3501 24.1273 27.1573L15.9993 18.9226L7.78597 27.1359C7.60572 27.3221 7.39038 27.4708 7.15238 27.5733C6.91438 27.6758 6.65843 27.7302 6.39931 27.7333C5.83351 27.7333 5.29089 27.5085 4.89081 27.1084C4.49073 26.7084 4.26597 26.1657 4.26597 25.5999C4.261 25.3384 4.30952 25.0786 4.40857 24.8365C4.50762 24.5943 4.65511 24.375 4.84197 24.1919L13.1406 15.9999L4.84197 7.70127C4.49037 7.35729 4.28419 6.89148 4.26597 6.39994C4.26597 5.83414 4.49073 5.29152 4.89081 4.89144C5.29089 4.49136 5.83351 4.2666 6.39931 4.2666C6.91131 4.273 7.40197 4.47993 7.76464 4.8426Z" fill="#0D1B44"/>
</svg>
