<svg width="20" height="16" viewBox="0 0 20 16" fill="none" xmlns="http://www.w3.org/2000/svg">
<path d="M1.66732 1.89168L2.73398 0.833344L16.6673 14.7667L15.609 15.8333L13.0423 13.2667C12.084 13.5833 11.0673 13.75 10.0007 13.75C5.83398 13.75 2.27565 11.1583 0.833984 7.50001C1.40898 6.03334 2.32565 4.74168 3.49232 3.71668L1.66732 1.89168ZM10.0007 5.00001C10.6637 5.00001 11.2996 5.2634 11.7684 5.73224C12.2373 6.20108 12.5007 6.83697 12.5007 7.50001C12.5011 7.78382 12.4532 8.06562 12.359 8.33334L9.16732 5.14168C9.43504 5.0475 9.71685 4.99959 10.0007 5.00001M10.0007 1.25001C14.1673 1.25001 17.7257 3.84168 19.1673 7.50001C18.4872 9.22768 17.3314 10.7273 15.834 11.825L14.6507 10.6333C15.8031 9.83616 16.7325 8.75756 17.3507 7.50001C16.677 6.12496 15.631 4.96648 14.3317 4.15626C13.0324 3.34604 11.5319 2.91658 10.0007 2.91668C9.09232 2.91668 8.20065 3.06668 7.36732 3.33334L6.08398 2.05834C7.28398 1.54168 8.60898 1.25001 10.0007 1.25001ZM2.65065 7.50001C3.32435 8.87506 4.37029 10.0335 5.66959 10.8438C6.96889 11.654 8.46943 12.0834 10.0007 12.0833C10.5757 12.0833 11.1423 12.025 11.6673 11.9083L9.76732 10C9.18745 9.93786 8.64634 9.67907 8.23396 9.2667C7.82159 8.85432 7.56281 8.31321 7.50065 7.73334L4.66732 4.89168C3.84232 5.60001 3.15065 6.48334 2.65065 7.50001V7.50001Z" fill="#0D1B44"/>
</svg>
