<svg width="20" height="20" viewBox="0 0 20 20" fill="none" xmlns="http://www.w3.org/2000/svg">
<path d="M1.66683 4.39159L2.7335 3.33325L16.6668 17.2666L15.6085 18.3333L13.0418 15.7666C12.0835 16.0833 11.0668 16.2499 10.0002 16.2499C5.8335 16.2499 2.27516 13.6583 0.833496 9.99992C1.4085 8.53325 2.32516 7.24159 3.49183 6.21659L1.66683 4.39159ZM10.0002 7.49992C10.6632 7.49992 11.2991 7.76331 11.7679 8.23215C12.2368 8.70099 12.5002 9.33688 12.5002 9.99992C12.5006 10.2837 12.4527 10.5655 12.3585 10.8333L9.16683 7.64159C9.43455 7.5474 9.71636 7.4995 10.0002 7.49992M10.0002 3.74992C14.1668 3.74992 17.7252 6.34159 19.1668 9.99992C18.4867 11.7276 17.331 13.2272 15.8335 14.3249L14.6502 13.1333C15.8026 12.3361 16.732 11.2575 17.3502 9.99992C16.6765 8.62487 15.6305 7.46639 14.3312 6.65617C13.0319 5.84595 11.5314 5.41648 10.0002 5.41659C9.09183 5.41659 8.20016 5.56659 7.36683 5.83325L6.0835 4.55825C7.2835 4.04159 8.6085 3.74992 10.0002 3.74992ZM2.65016 9.99992C3.32386 11.375 4.36981 12.5334 5.6691 13.3437C6.9684 14.1539 8.46894 14.5834 10.0002 14.5833C10.5752 14.5833 11.1418 14.5249 11.6668 14.4083L9.76683 12.4999C9.18697 12.4378 8.64585 12.179 8.23348 11.7666C7.8211 11.3542 7.56232 10.8131 7.50016 10.2333L4.66683 7.39159C3.84183 8.09992 3.15016 8.98325 2.65016 9.99992V9.99992Z" fill="#C51818"/>
</svg>
