<svg width="34" height="33" viewBox="0 0 34 33" fill="none" xmlns="http://www.w3.org/2000/svg">
    <path d="M33.2345 30.125C30.9021 26.1071 27.1687 23.0914 22.7501 21.6562C24.868 20.3968 26.5139 18.4768 27.4349 16.1913C28.3558 13.9058 28.5009 11.3811 27.8478 9.00507C27.1947 6.62908 25.7796 4.53322 23.8199 3.03947C21.8602 1.54571 19.4642 0.736694 17.0001 0.736694C14.536 0.736694 12.14 1.54571 10.1803 3.03947C8.22059 4.53322 6.80549 6.62908 6.15242 9.00507C5.49935 11.3811 5.64443 13.9058 6.56537 16.1913C7.48631 18.4768 9.13217 20.3968 11.2501 21.6562C6.83151 23.0914 3.09813 26.1071 0.765735 30.125C0.667907 30.2669 0.600489 30.4275 0.567718 30.5968C0.534948 30.766 0.537534 30.9402 0.575313 31.1084C0.613091 31.2765 0.685247 31.4351 0.787246 31.5741C0.889244 31.713 1.01888 31.8294 1.16801 31.9158C1.31714 32.0023 1.48253 32.057 1.65381 32.0764C1.82508 32.0959 1.99853 32.0797 2.16325 32.0289C2.32797 31.9781 2.48041 31.8938 2.61098 31.7813C2.74155 31.6687 2.84744 31.5304 2.92199 31.375C4.35071 28.9062 6.40352 26.8565 8.8745 25.4316C11.3455 24.0067 14.1477 23.2566 17.0001 23.2566C19.8525 23.2566 22.6547 24.0067 25.1257 25.4316C27.5967 26.8565 29.6495 28.9062 31.0782 31.375C31.1528 31.5304 31.2587 31.6687 31.3892 31.7813C31.5198 31.8938 31.6722 31.9781 31.837 32.0289C32.0017 32.0797 32.1751 32.0959 32.3464 32.0764C32.5177 32.057 32.6831 32.0023 32.8322 31.9158C32.9813 31.8294 33.111 31.713 33.213 31.5741C33.315 31.4351 33.3871 31.2765 33.4249 31.1084C33.4627 30.9402 33.4653 30.766 33.4325 30.5968C33.3997 30.4275 33.3323 30.2669 33.2345 30.125V30.125ZM8.25011 12C8.25011 10.2694 8.76329 8.57767 9.72475 7.13874C10.6862 5.69981 12.0528 4.5783 13.6516 3.91604C15.2505 3.25377 17.0098 3.08049 18.7072 3.41811C20.4045 3.75573 21.9636 4.58909 23.1873 5.8128C24.411 7.03651 25.2444 8.59561 25.582 10.2929C25.9196 11.9903 25.7463 13.7496 25.0841 15.3485C24.4218 16.9473 23.3003 18.3139 21.8614 19.2753C20.4224 20.2368 18.7307 20.75 17.0001 20.75C14.6795 20.75 12.4539 19.8281 10.8129 18.1872C9.17198 16.5462 8.25011 14.3206 8.25011 12Z" fill="#DD9B5C"/>
</svg>